<svg xmlns="http://www.w3.org/2000/svg" xmlns:xlink="http://www.w3.org/1999/xlink" xmlns:lucid="lucid" width="1402.5" height="868.65"><g transform="translate(-320 -120)" lucid:page-tab-id="0_0"><path d="M1345 437.25a6 6 0 0 1 6-6h328a6 6 0 0 1 6 6V574a6 6 0 0 1-6 6h-328a6 6 0 0 1-6-6z" stroke="#5e5e5e" stroke-width="3" fill="#fff"/><path d="M1320 463.33a6 6 0 0 1 6-6h328a6 6 0 0 1 6 6v136.75a6 6 0 0 1-6 6h-328a6 6 0 0 1-6-6z" stroke="#5e5e5e" stroke-width="3" fill="#fff"/><path d="M1277.5 430a30 30 0 0 1 30-30h365a30 30 0 0 1 30 30v237.33a30 30 0 0 1-30 30h-365a30 30 0 0 1-30-30z" fill-opacity="0"/><path d="M1289.87 405.73l4-2.46 4.36-1.8 4.58-1.1 15.4-.02m15.4 0l30.82-.04m15.4 0l30.8-.04m15.42 0l30.8-.04m15.4-.02l30.82-.03m15.4-.02l30.8-.03m15.4 0l30.82-.04m15.4-.02l30.8-.03m15.42 0l15.4-.03 4.7.37 4.57 1.1 4.35 1.8m10.65 9.1l2.46 4 1.8 4.36 1.1 4.58.03 16.14m.02 16.14l.05 32.27m.02 16.13l.05 32.27m.03 16.14l.05 32.26m.02 16.13l.05 32.26m.03 16.14l.02 16.13-.37 4.7-1.1 4.57-1.8 4.35m-9.1 10.65l-4 2.46-4.36 1.8-4.58 1.1-15.4.02m-15.4 0l-30.82.05m-15.4 0l-30.8.04m-15.42.02l-30.8.02m-15.4 0l-30.82.04m-15.4.02l-30.8.03m-15.4.03l-30.82.03m-15.4 0l-30.8.04m-15.42.02h-15.4l-4.7-.36-4.57-1.1-4.35-1.8m-10.65-9.1l-2.46-4-1.8-4.36-1.1-4.57-.03-16.14m-.02-16.14l-.05-32.27m-.02-16.15l-.05-32.27m-.03-16.13l-.05-32.27m-.02-16.14l-.05-32.27m-.03-16.13l-.02-16.14.37-4.7 1.1-4.57 1.8-4.35" stroke="#635dff" stroke-width="3" fill="none"/><use xlink:href="#a" transform="matrix(1,0,0,1,1289.5,412) translate(87.59635416666666 241.55367936666664)"/><use xlink:href="#b" transform="matrix(1,0,0,1,1289.5,412) translate(40.53255208333334 272.5953460333333)"/><use xlink:href="#c" transform="matrix(1,0,0,1,1289.5,412) translate(258.59244791666663 272.5953460333333)"/><path d="M810 230a30 30 0 0 1 30-30h300a30 30 0 0 1 30 30v197.33a30 30 0 0 1-30 30H840a30 30 0 0 1-30-30z" fill-opacity="0"/><path d="M822.37 205.73l4-2.46 4.36-1.8 4.58-1.1 14.52-.02m14.5-.02l29.02-.03m14.5-.02l29.03-.03m14.5-.02l29.03-.04m14.5-.02l29.03-.04m14.5-.02l29.02-.03m14.5-.03l29.03-.03m14.5-.02L1140 200l4.7.37 4.57 1.1 4.35 1.8m10.65 9.1l2.46 4 1.8 4.36 1.1 4.58.03 16.84m.03 16.84l.05 33.67m.03 16.83l.07 33.68m.03 16.83l.06 33.66m.03 16.84l.03 16.83-.37 4.7-1.1 4.57-1.8 4.35m-9.1 10.65l-4 2.46-4.36 1.8-4.58 1.1-14.52.02m-14.5.02l-29.02.03m-14.5.02l-29.03.04m-14.5 0l-29.03.04m-14.5.02l-29.03.03m-14.5 0l-29.02.05m-14.5 0l-29.03.05m-14.5.02H840l-4.7-.36-4.57-1.1-4.35-1.8m-10.65-9.1l-2.46-4-1.8-4.36-1.1-4.57-.03-16.84m-.03-16.84l-.05-33.68m-.03-16.83l-.07-33.67m-.03-16.84l-.06-33.67m-.03-16.83L810 230l.37-4.7 1.1-4.57 1.8-4.35" stroke="#008573" stroke-width="3" fill="none"/><use xlink:href="#d" transform="matrix(1,0,0,1,822,212) translate(1.0013020833333428 24.752604166666664)"/><use xlink:href="#e" transform="matrix(1,0,0,1,822,212) translate(95.44140625 24.752604166666664)"/><use xlink:href="#f" transform="matrix(1,0,0,1,822,212) translate(253.03255208333334 24.752604166666664)"/><path d="M777.5 610a30 30 0 0 1 30-30h365a30 30 0 0 1 30 30v237.33a30 30 0 0 1-30 30h-365a30 30 0 0 1-30-30z" fill-opacity="0"/><path d="M789.87 585.73l4-2.46 4.36-1.8 4.58-1.1 15.4-.02m15.4 0l30.82-.04m15.4 0l30.8-.04m15.42 0l30.8-.04m15.4-.02l30.82-.03m15.4-.02l30.8-.03m15.4 0l30.82-.04m15.4-.02l30.8-.03m15.42 0l15.4-.03 4.7.37 4.57 1.1 4.35 1.8m10.65 9.1l2.46 4 1.8 4.36 1.1 4.58.03 16.14m.02 16.14l.05 32.27m.02 16.13l.05 32.27m.03 16.14l.05 32.26m.02 16.13l.05 32.26m.03 16.14l.02 16.13-.37 4.7-1.1 4.57-1.8 4.35m-9.1 10.65l-4 2.46-4.36 1.8-4.58 1.1-15.4.02m-15.4 0l-30.82.05m-15.4 0l-30.8.04m-15.42.02l-30.8.02m-15.4 0l-30.82.04m-15.4.02l-30.8.03m-15.4.03l-30.82.03m-15.4 0l-30.8.04m-15.42.02h-15.4l-4.7-.36-4.57-1.1-4.35-1.8m-10.65-9.1l-2.46-4-1.8-4.36-1.1-4.57-.03-16.14m-.02-16.14l-.05-32.27m-.02-16.15l-.05-32.27m-.03-16.13l-.05-32.27m-.02-16.14l-.05-32.27m-.03-16.13L777.5 610l.37-4.7 1.1-4.57 1.8-4.35" stroke="#1071e5" stroke-width="3" fill="none"/><use xlink:href="#g" transform="matrix(1,0,0,1,789.5,592.0000000000001) translate(87.59635416666666 241.55367936666664)"/><use xlink:href="#h" transform="matrix(1,0,0,1,789.5,592.0000000000001) translate(56.65234375 272.5953460333333)"/><use xlink:href="#i" transform="matrix(1,0,0,1,789.5,592.0000000000001) translate(242.47265625 272.5953460333333)"/><path d="M340 350a30 30 0 0 1 30-30h300a30 30 0 0 1 30 30v200a30 30 0 0 1-30 30H370a30 30 0 0 1-30-30z" fill-opacity="0"/><path d="M352.37 325.73l4-2.46 4.36-1.8 4.58-1.1 14.52-.02m14.5-.02l29.02-.03m14.5-.02l29.03-.03m14.5-.02l29.03-.04m14.5-.02l29.03-.04m14.5-.02l29.02-.03m14.5-.03l29.03-.03m14.5-.02L670 320l4.7.37 4.57 1.1 4.35 1.8m10.65 9.1l2.46 4 1.8 4.36 1.1 4.58.03 13.65m.02 13.65l.05 27.3m.02 13.64l.05 27.3m.03 13.64l.05 27.3m.02 13.64l.05 27.3m.03 13.63L700 550l-.37 4.7-1.1 4.57-1.8 4.35m-9.1 10.65l-4 2.46-4.36 1.8-4.58 1.1-14.52.02m-14.5.02l-29.02.03m-14.5.02l-29.03.03m-14.5.02l-29.03.04m-14.5.02l-29.03.04m-14.5.02l-29.02.03m-14.5.03l-29.03.03m-14.5.02L370 580l-4.7-.37-4.57-1.1-4.35-1.8m-10.65-9.1l-2.46-4-1.8-4.36-1.1-4.58-.03-13.65m-.02-13.65l-.05-27.3m-.02-13.64l-.05-27.3m-.03-13.64l-.05-27.3m-.02-13.64l-.05-27.3m-.03-13.63L340 350l.37-4.7 1.1-4.57 1.8-4.35" stroke="#cc4e00" stroke-width="3" fill="none"/><use xlink:href="#j" transform="matrix(1,0,0,1,352,332) translate(51.37239583333334 234.45956096666666)"/><path d="M400 386a6 6 0 0 1 6-6h228a6 6 0 0 1 6 6v108a6 6 0 0 1-6 6H406a6 6 0 0 1-6-6z" stroke="#5e5e5e" stroke-width="4" fill-opacity="0"/><use xlink:href="#k" transform="matrix(1,0,0,1,400,380) translate(49.86979166666667 54.752604166666664)"/><use xlink:href="#l" transform="matrix(1,0,0,1,400,380) translate(133.91927083333331 54.752604166666664)"/><use xlink:href="#m" transform="matrix(1,0,0,1,400,380) translate(66.50390625 85.79427083333333)"/><path d="M870 286a6 6 0 0 1 6-6h228a6 6 0 0 1 6 6v108a6 6 0 0 1-6 6H876a6 6 0 0 1-6-6z" stroke="#5e5e5e" stroke-width="4" fill-opacity="0"/><use xlink:href="#n" transform="matrix(1,0,0,1,870,280) translate(8.6328125 54.752604166666664)"/><use xlink:href="#o" transform="matrix(1,0,0,1,870,280) translate(31.927083333333332 54.752604166666664)"/><use xlink:href="#p" transform="matrix(1,0,0,1,870,280) translate(172.43489583333334 54.752604166666664)"/><use xlink:href="#q" transform="matrix(1,0,0,1,870,280) translate(8.424479166666671 85.79427083333333)"/><use xlink:href="#r" transform="matrix(1,0,0,1,870,280) translate(149.81770833333331 85.79427083333333)"/><path d="M820 660.3a6 6 0 0 1 6-6h328a6 6 0 0 1 6 6v136.74a6 6 0 0 1-6 6H826a6 6 0 0 1-6-6z" stroke="#5e5e5e" stroke-width="3" fill="#fff"/><use xlink:href="#n" transform="matrix(1,0,0,1,820,654.2916666666667) translate(58.6328125 52.690104166666664)"/><use xlink:href="#o" transform="matrix(1,0,0,1,820,654.2916666666667) translate(81.92708333333333 52.690104166666664)"/><use xlink:href="#p" transform="matrix(1,0,0,1,820,654.2916666666667) translate(222.43489583333334 52.690104166666664)"/><use xlink:href="#s" transform="matrix(1,0,0,1,820,654.2916666666667) translate(41.725260416666686 83.73177083333333)"/><use xlink:href="#t" transform="matrix(1,0,0,1,820,654.2916666666667) translate(265.07161458333337 83.73177083333333)"/><use xlink:href="#u" transform="matrix(1,0,0,1,820,654.2916666666667) translate(120.2734375 114.7734375)"/><path d="M990 403.96V630.1" stroke="#5e5e5e" stroke-width="4" fill="none"/><path d="M992 404h-4v-2.04h4z" stroke="#5e5e5e" stroke-width=".05" fill="#5e5e5e"/><path d="M990 646.36l-4.64-14.27h9.28z" stroke="#5e5e5e" stroke-width="4" fill="#5e5e5e"/><path d="M520 214.05V355.3" stroke="#5e5e5e" stroke-width="4" fill="none"/><path d="M522 214.1h-4v-2.05h4z" stroke="#5e5e5e" stroke-width=".05" fill="#5e5e5e"/><path d="M520 371.56l-4.64-14.26h9.28z" stroke="#5e5e5e" stroke-width="4" fill="#5e5e5e"/><path d="M400 146a6 6 0 0 1 6-6h228a6 6 0 0 1 6 6v60.08a6 6 0 0 1-6 6H406a6 6 0 0 1-6-6z" stroke="#000" stroke-opacity="0" stroke-width="3" fill="#fff" fill-opacity="0"/><use xlink:href="#v" transform="matrix(1,0,0,1,400,140) translate(51.39756944444446 29.16276041666667)"/><use xlink:href="#w" transform="matrix(1,0,0,1,400,140) translate(-0.5175781249999574 65.37803819444443)"/><path d="M1350 866a6 6 0 0 1 6-6h228a6 6 0 0 1 6 6v96.65a6 6 0 0 1-6 6h-228a6 6 0 0 1-6-6z" stroke="#000" stroke-opacity="0" stroke-width="3" fill="#fff" fill-opacity="0"/><use xlink:href="#x" transform="matrix(1,0,0,1,1350,860) translate(56.03841145833335 29.055121527777786)"/><use xlink:href="#y" transform="matrix(1,0,0,1,1350,860) translate(9.873046875000043 65.27039930555554)"/><use xlink:href="#z" transform="matrix(1,0,0,1,1350,860) translate(79.76671006944446 101.48567708333331)"/><path d="M643.96 440H749a6 6 0 0 0 6-6v-88a6 6 0 0 1 6-6h84.3" stroke="#5e5e5e" stroke-width="4" fill="none"/><path d="M644 442h-2.04v-4H644z" stroke="#5e5e5e" stroke-width=".05" fill="#5e5e5e"/><path d="M861.56 340l-14.26 4.64v-9.28z" stroke="#5e5e5e" stroke-width="4" fill="#5e5e5e"/><path d="M1163.46 728.67h86.3a6 6 0 0 1 6 6v173.65a6 6 0 0 0 6 6h65.54" stroke="#5e5e5e" stroke-width="4" fill="none"/><path d="M1163.5 730.67h-2.04v-4h2.05z" stroke="#5e5e5e" stroke-width=".05" fill="#5e5e5e"/><path d="M1343.56 914.32l-14.26 4.64v-9.27z" stroke="#5e5e5e" stroke-width="4" fill="#5e5e5e"/><path d="M1113.96 340h115.27a6 6 0 0 0 6-6v-78a6 6 0 0 1 6-6h94.53" stroke="#5e5e5e" stroke-width="4" fill="none"/><path d="M1114 342h-2.04v-4h2.05z" stroke="#5e5e5e" stroke-width=".05" fill="#5e5e5e"/><path d="M1352.03 250l-14.27 4.64v-9.28z" stroke="#5e5e5e" stroke-width="4" fill="#5e5e5e"/><path d="M1300 486a6 6 0 0 1 6-6h328a6 6 0 0 1 6 6v136.75a6 6 0 0 1-6 6h-328a6 6 0 0 1-6-6z" stroke="#5e5e5e" stroke-width="3" fill="#fff"/><g><use xlink:href="#n" transform="matrix(1,0,0,1,1300,480) translate(58.6328125 52.690104166666664)"/><use xlink:href="#o" transform="matrix(1,0,0,1,1300,480) translate(81.92708333333333 52.690104166666664)"/><use xlink:href="#p" transform="matrix(1,0,0,1,1300,480) translate(222.43489583333334 52.690104166666664)"/><use xlink:href="#s" transform="matrix(1,0,0,1,1300,480) translate(41.725260416666686 83.73177083333333)"/><use xlink:href="#t" transform="matrix(1,0,0,1,1300,480) translate(265.07161458333337 83.73177083333333)"/><use xlink:href="#A" transform="matrix(1,0,0,1,1300,480) translate(71.90755208333334 114.7734375)"/><use xlink:href="#B" transform="matrix(1,0,0,1,1300,480) translate(190.37109375 114.7734375)"/></g><path d="M1490 317.84v115.3" stroke="#5e5e5e" stroke-width="4" fill="none"/><path d="M1492 317.9h-4v-1.38l4-1.36z" stroke="#5e5e5e" stroke-width=".05" fill="#5e5e5e"/><path d="M1490 449.4l-4.64-14.27h9.28z" stroke="#5e5e5e" stroke-width="4" fill="#5e5e5e"/><path d="M1470 632.2v205.1" stroke="#5e5e5e" stroke-width="4" fill="none"/><path d="M1472 632.26h-4v-2.05h4z" stroke="#5e5e5e" stroke-width=".05" fill="#5e5e5e"/><path d="M1470 853.56l-4.64-14.26h9.28z" stroke="#5e5e5e" stroke-width="4" fill="#5e5e5e"/><path d="M1360 186a6 6 0 0 1 6-6h222a6 6 0 0 1 6 6v113c-39.08-19.87-63.4-19.87-78.16-19.87-23.4 0-54.52 19.87-77.92 19.87-14.5 0-39.08 0-77.92-19.87z" stroke="#5e5e5e" stroke-width="3" fill="#fff"/><path d="M1373 196.5a6 6 0 0 1 6-6h222a6 6 0 0 1 6 6v113c-39.08-19.87-63.4-19.87-78.16-19.87-23.4 0-54.52 19.87-77.92 19.87-14.5 0-39.08 0-77.92-19.87z" stroke="#5e5e5e" stroke-width="3" fill="#fff"/><path d="M1386 207a6 6 0 0 1 6-6h222a6 6 0 0 1 6 6v113c-39.08-19.87-63.4-19.87-78.16-19.87-23.4 0-54.52 19.87-77.92 19.87-14.5 0-39.08 0-77.92-19.87z" stroke="#5e5e5e" stroke-width="3" fill="#fff"/><g><use xlink:href="#C" transform="matrix(1,0,0,1,1391,206) translate(19.110677083333343 52.877604166666664)"/><use xlink:href="#B" transform="matrix(1,0,0,1,1391,206) translate(106.16796875 52.877604166666664)"/></g><defs><path fill="#635dff" d="M1325-1194c-8-77-90-138-171-94-107 57-152 220-217 326-44 72-79 133-140 180 148 6 224 93 282 192 73 125 138 265 219 381 40 57 83 101 177 100V0c-146 1-295 6-385-50-59-36-100-83-134-145L762-549c-44-81-83-134-211-127v434c0 84 23 133 106 133h86V0H57v-109h86c79 3 105-42 105-122v-998c1-82-26-125-105-125H57v-108h686v108h-86c-82-2-106 49-106 133v428c152 0 175-60 243-161 106-159 173-426 359-502 33-12 70-19 111-19 101-2 158 42 161 129 2 79-36 140-100 152" id="D"/><path fill="#635dff" d="M113-262c-10 96 129 120 181 50 95-128 135-360 170-558 6-36 7-67 7-92 3-109-75-132-186-127v-109h1034v109c-104-5-170 31-170 133v614c0 102 66 138 170 133V0H678v-109c102 5 161-33 160-133v-739H606c-35 301-77 594-178 821C382-57 315 9 172 14 48 18-32-71 10-188c15-42 50-71 103-74" id="E"/><path fill="#635dff" d="M526-129c139 0 193-116 193-262v-154c-144 3-272 20-298 142-6 28-11 61-11 98 1 103 24 176 116 176zm193-524c-6-153 30-348-127-346-115 1-136 103-137 221-92 0-160-13-207-31-80-31-88-141-36-202 75-88 224-112 388-113 266-2 430 83 430 348v522c-3 99 29 152 131 145V0H780l-43-141h-18C646-52 578 24 414 20 206 14 92-101 92-313c0-254 188-323 459-334" id="F"/><path fill="#635dff" d="M952-299c53 28 65 116 26 173C912-25 777 20 604 20 249 20 96-183 96-545c0-366 147-579 502-579 170 0 310 34 380 130 46 63 27 167-26 205-49 36-119 55-213 54-1-102-14-196-69-243-36-31-106-28-144 0-103 75-114 241-114 431 0 139 19 242 57 311s100 103 186 103c149 0 244-68 297-166" id="G"/><path fill="#635dff" d="M1380-989c-104-5-170 31-170 133v614c0 102 66 138 170 133V0H760v-109c89 1 139-41 139-133v-440L516-262c-6 104 42 154 139 153V0H35v-109c104 5 170-31 170-133v-614c0-102-66-138-170-133v-109h620v109c-89-1-139 41-139 133v436l383-420c5-102-44-150-139-149v-109h620v109" id="H"/><path fill="#635dff" d="M991 252c-1 102 66 136 170 131v109H526V383c104 5 171-29 170-131V10C419-6 226-120 138-324c-28-67-42-143-42-227 0-371 241-532 600-557v-215c0-98-69-130-170-125v-108h465v450c272 19 465 129 552 332 28 66 42 140 42 223 0 370-236 537-594 561v242zM696-975c-210 27-293 181-293 424 0 241 85 404 293 432v-856zm295 854c205-28 287-191 287-430 0-236-85-396-287-424v854" id="I"/><path fill="#635dff" d="M516-242c0 92 50 134 139 133V0H35v-109c104 5 170-31 170-133v-614c0-102-66-138-170-133v-109h620v109c-89-1-139 41-139 133v225c114 0 139-50 192-119 103-134 161-360 400-360 120 0 205 60 166 176-15 45-56 72-111 78-7-68-63-128-138-96-118 81-170 250-284 336 215 25 270 222 365 370 49 76 86 141 209 137V0c-189 2-360 2-455-92-94-92-145-254-222-364-28-40-56-64-122-62v276" id="J"/><path fill="#635dff" d="M868-864c0-88-53-126-139-125v-109h610v109c-104-5-170 31-170 133v631c-2 106 87 120 195 116v539h-141c-14-197-12-430-203-430H35v-109c100 5 170-26 170-124v-623c0-102-66-138-170-133v-109h610v109c-89-1-139 41-139 133v739h362v-747" id="K"/><path fill="#635dff" d="M442-799c0 119 44 195 162 195h135v-377H604c-115 0-162 68-162 182zm121 690c109 4 176-28 176-137v-237H631L471-188C397-37 229 3 0 0v-109c99 1 135-59 174-122l180-289c-131-37-233-121-233-287 0-237 200-291 448-291h652v109c-110-1-170 27-170 125v618c-1 102 60 144 170 137V0H563v-109" id="L"/><g id="a"><use transform="matrix(0.013020833333333332,0,0,0.013020833333333332,0,0)" xlink:href="#D"/><use transform="matrix(0.013020833333333332,0,0,0.013020833333333332,19.205729166666664,0)" xlink:href="#E"/><use transform="matrix(0.013020833333333332,0,0,0.013020833333333332,36.8359375,0)" xlink:href="#F"/><use transform="matrix(0.013020833333333332,0,0,0.013020833333333332,52.8125,0)" xlink:href="#G"/><use transform="matrix(0.013020833333333332,0,0,0.013020833333333332,66.86197916666667,0)" xlink:href="#G"/><use transform="matrix(0.013020833333333332,0,0,0.013020833333333332,80.91145833333334,0)" xlink:href="#H"/><use transform="matrix(0.013020833333333332,0,0,0.013020833333333332,99.3359375,0)" xlink:href="#I"/><use transform="matrix(0.013020833333333332,0,0,0.013020833333333332,121.22395833333333,0)" xlink:href="#H"/><use transform="matrix(0.013020833333333332,0,0,0.013020833333333332,139.6484375,0)" xlink:href="#J"/><use transform="matrix(0.013020833333333332,0,0,0.013020833333333332,156.77083333333334,0)" xlink:href="#F"/><use transform="matrix(0.013020833333333332,0,0,0.013020833333333332,172.74739583333334,0)" xlink:href="#K"/><use transform="matrix(0.013020833333333332,0,0,0.013020833333333332,191.04166666666669,0)" xlink:href="#H"/><use transform="matrix(0.013020833333333332,0,0,0.013020833333333332,209.46614583333334,0)" xlink:href="#L"/></g><path fill="#635dff" d="M375-870c1-100-76-120-176-119v-109h1005v109c-104-5-170 31-170 133v631c-2 106 87 120 195 116v539h-142C1075 231 1075 0 885 0H377C164-3 186 233 168 430H27v-547h141c99-170 165-417 200-659 5-36 7-67 7-94zm358-111H514c-32 341-88 622-203 864h422v-864" id="M"/><path fill="#635dff" d="M1380-989c-104-5-170 31-170 133v614c0 102 66 138 170 133V0H760v-109c89 1 139-41 139-133v-264H516v264c0 92 50 134 139 133V0H35v-109c104 5 170-31 170-133v-614c0-102-66-138-170-133v-109h620v109c-89-1-139 41-139 133v233h383v-233c0-92-50-134-139-133v-109h620v109" id="N"/><path fill="#635dff" d="M336-246c-3 108 66 141 174 137V0H35v-109c104 5 170-31 170-133v-614c0-102-66-138-170-133v-109h536l303 686 310-686h549v109c-118-6-195 21-195 137v606c-3 116 77 143 195 137V0h-664v-109c108 4 174-29 174-137v-631h-14L831 0h-94L350-877h-14v631" id="O"/><path fill="#635dff" d="M1190-246c-2 106 63 142 170 137V0H684v-109c120 7 195-19 195-137v-260c-116 68-221 137-400 137-181 0-295-92-295-270v-211c2-99-56-139-151-139v-109h602v109c-92-1-139 44-139 137v182c0 94 41 135 131 135 113 0 175-45 252-86v-229c0-95-46-141-140-139v-109h621v109c-107-5-170 31-170 137v606" id="P"/><path fill="#635dff" d="M682-968c-75-53-166-16-210 62-32 57-53 140-56 249h354c-1-134-12-257-88-311zm4 835c147 0 236-69 289-166 63 29 71 123 31 183C939-17 799 20 627 20 270 20 96-185 96-543c0-359 153-581 508-581 315 0 475 175 479 493v105H412c10 217 60 393 274 393" id="Q"/><path fill="#635dff" d="M705-989c-62 1-123 3-123 59 0 45 20 61 47 94l114 140c44-57 101-111 135-176 9-19 13-37 13-56 0-57-52-60-111-61v-109h473v109c-126-6-167 60-225 131L817-600l301 383c57 65 88 109 191 108V0H657v-109c112 6 164-41 120-119-47-83-123-156-181-231-57 77-127 143-174 229-9 17-12 35-12 52 0 61 56 68 133 69V0H23v-109c133 7 180-58 241-131l258-311-258-330c-54-63-97-112-203-108v-109h644v109" id="R"/><g id="b"><use transform="matrix(0.013020833333333332,0,0,0.013020833333333332,0,0)" xlink:href="#M"/><use transform="matrix(0.013020833333333332,0,0,0.013020833333333332,16.666666666666664,0)" xlink:href="#H"/><use transform="matrix(0.013020833333333332,0,0,0.013020833333333332,35.09114583333333,0)" xlink:href="#N"/><use transform="matrix(0.013020833333333332,0,0,0.013020833333333332,53.51562499999999,0)" xlink:href="#F"/><use transform="matrix(0.013020833333333332,0,0,0.013020833333333332,69.49218749999999,0)" xlink:href="#O"/><use transform="matrix(0.013020833333333332,0,0,0.013020833333333332,92.49999999999999,0)" xlink:href="#H"/><use transform="matrix(0.013020833333333332,0,0,0.013020833333333332,110.92447916666666,0)" xlink:href="#P"/><use transform="matrix(0.013020833333333332,0,0,0.013020833333333332,129.08854166666666,0)" xlink:href="#Q"/><use transform="matrix(0.013020833333333332,0,0,0.013020833333333332,144.30989583333331,0)" xlink:href="#G"/><use transform="matrix(0.013020833333333332,0,0,0.013020833333333332,158.35937499999997,0)" xlink:href="#J"/><use transform="matrix(0.013020833333333332,0,0,0.013020833333333332,175.48177083333331,0)" xlink:href="#H"/><use transform="matrix(0.013020833333333332,0,0,0.013020833333333332,193.90624999999997,0)" xlink:href="#R"/></g><path fill="#635dff" d="M1090-242c-1 93 50 133 139 133V0H649v-109c93 1 150-38 150-133v-276c-111-4-140 57-183 129C521-228 473-22 234-6 169-2 78 0 0 0v-109c123 5 160-61 209-137 96-148 149-343 364-370-98-80-155-217-245-308-21-21-40-36-74-37-65-1-92 48-102 105-72-9-121-51-121-129 0-94 75-125 176-125 183 0 236 121 311 233 54 82 85 144 139 201 33 35 69 45 142 45v-225c0-95-57-134-150-133v-109h580v109c-89 0-139 40-139 133v225c120 2 144-49 198-119 102-133 157-360 393-360 120 0 208 61 167 176-16 44-56 72-111 78-7-68-64-128-139-96-118 81-169 250-283 336 247 32 285 285 411 439 37 46 80 70 162 68V0c-183 1-350 3-438-92-89-96-142-256-220-364-31-42-67-64-140-62v276" id="S"/><path fill="#635dff" d="M256-109c108 6 171-33 170-137v-735c-74 5-167-16-200 35-29 46-35 127-44 198H41l12-350h1055l12 350H979c-18-105-5-234-125-233H737v735c-1 101 56 143 160 137V0H256v-109" id="T"/><path fill="#635dff" d="M631-1124c358 0 526 209 528 571 2 373-172 573-534 573C267 20 98-190 96-553c-2-374 172-571 535-571zM527-966c-131 91-126 390-101 605 16 136 58 252 203 252 203 0 213-228 213-444 0-180-15-339-115-413-51-37-148-36-200 0" id="U"/><path fill="#635dff" d="M1184-305C1184-70 988 0 741 0H35v-109c104 5 170-31 170-133v-622c0-98-69-130-170-125v-109h645c153 0 265 22 338 67s110 110 110 195c0 163-95 240-239 261v10c164 18 295 83 295 260zm-326-14c0-136-72-189-207-187H516v389h146c142 6 196-59 196-202zM653-625c123 1 166-70 168-188 2-114-53-168-168-168H516v356h137" id="V"/><g id="c"><use transform="matrix(0.013020833333333332,0,0,0.013020833333333332,0,0)" xlink:href="#S"/><use transform="matrix(0.013020833333333332,0,0,0.013020833333333332,24.583333333333332,0)" xlink:href="#Q"/><use transform="matrix(0.013020833333333332,0,0,0.013020833333333332,39.8046875,0)" xlink:href="#G"/><use transform="matrix(0.013020833333333332,0,0,0.013020833333333332,53.854166666666664,0)" xlink:href="#T"/><use transform="matrix(0.013020833333333332,0,0,0.013020833333333332,68.97135416666666,0)" xlink:href="#U"/><use transform="matrix(0.013020833333333332,0,0,0.013020833333333332,85.31249999999999,0)" xlink:href="#V"/></g><path fill="#008573" d="M1409-231c-1 79 26 122 104 122h86V0H893v-109h88c81 2 104-49 104-133v-1095H571v1095c0 83 23 133 105 133h88V0H57v-109h86c82 2 105-49 105-133v-987c1-81-27-125-105-125H57v-108h1542v108h-86c-81-2-104 49-104 133v990" id="W"/><path fill="#008573" d="M631-1124c358 0 526 209 528 571 2 373-172 573-534 573C267 20 98-190 96-553c-2-374 172-571 535-571zM527-966c-131 91-126 390-101 605 16 136 58 252 203 252 203 0 213-228 213-444 0-180-15-339-115-413-51-37-148-36-200 0" id="X"/><path fill="#008573" d="M1380-989c-104-5-170 31-170 133v614c0 102 66 138 170 133V0H760v-109c89 1 139-41 139-133v-440L516-262c-6 104 42 154 139 153V0H35v-109c104 5 170-31 170-133v-614c0-102-66-138-170-133v-109h620v109c-89-1-139 41-139 133v436l383-420c5-102-44-150-139-149v-109h620v109" id="Y"/><path fill="#008573" d="M952-299c53 28 65 116 26 173C912-25 777 20 604 20 249 20 96-183 96-545c0-366 147-579 502-579 170 0 310 34 380 130 46 63 27 167-26 205-49 36-119 55-213 54-1-102-14-196-69-243-36-31-106-28-144 0-103 75-114 241-114 431 0 139 19 242 57 311s100 103 186 103c149 0 244-68 297-166" id="Z"/><path fill="#008573" d="M516-242c0 92 50 134 139 133V0H35v-109c104 5 170-31 170-133v-614c0-102-66-138-170-133v-109h620v109c-89-1-139 41-139 133v225c114 0 139-50 192-119 103-134 161-360 400-360 120 0 205 60 166 176-15 45-56 72-111 78-7-68-63-128-138-96-118 81-170 250-284 336 215 25 270 222 365 370 49 76 86 141 209 137V0c-189 2-360 2-455-92-94-92-145-254-222-364-28-40-56-64-122-62v276" id="aa"/><g id="d"><use transform="matrix(0.013020833333333332,0,0,0.013020833333333332,0,0)" xlink:href="#W"/><use transform="matrix(0.013020833333333332,0,0,0.013020833333333332,21.575520833333332,0)" xlink:href="#X"/><use transform="matrix(0.013020833333333332,0,0,0.013020833333333332,37.916666666666664,0)" xlink:href="#Y"/><use transform="matrix(0.013020833333333332,0,0,0.013020833333333332,56.34114583333333,0)" xlink:href="#Z"/><use transform="matrix(0.013020833333333332,0,0,0.013020833333333332,70.390625,0)" xlink:href="#aa"/></g><path fill="#008573" d="M113-262c-10 96 129 120 181 50 95-128 135-360 170-558 6-36 7-67 7-92 3-109-75-132-186-127v-109h1034v109c-104-5-170 31-170 133v614c0 102 66 138 170 133V0H678v-109c102 5 161-33 160-133v-739H606c-35 301-77 594-178 821C382-57 315 9 172 14 48 18-32-71 10-188c15-42 50-71 103-74" id="ab"/><path fill="#008573" d="M1286-1124c351 0 505 215 508 571 3 368-162 573-514 573-336 0-491-199-508-526H516v264c0 96 54 136 150 133V0H35v-109c104 5 170-31 170-133v-614c0-102-66-138-170-133v-109h631v109c-96-3-150 37-150 133v233h258c19-325 180-501 512-501zm-94 158c-125 91-114 393-92 605 13 132 48 252 184 252s165-122 183-252c21-155 5-425-34-522-41-102-154-147-241-83" id="ac"/><path fill="#008573" d="M1190-246c-2 106 63 142 170 137V0H684v-109c120 7 195-19 195-137v-260c-116 68-221 137-400 137-181 0-295-92-295-270v-211c2-99-56-139-151-139v-109h602v109c-92-1-139 44-139 137v182c0 94 41 135 131 135 113 0 175-45 252-86v-229c0-95-46-141-140-139v-109h621v109c-107-5-170 31-170 137v606" id="ad"/><path fill="#008573" d="M682-968c-75-53-166-16-210 62-32 57-53 140-56 249h354c-1-134-12-257-88-311zm4 835c147 0 236-69 289-166 63 29 71 123 31 183C939-17 799 20 627 20 270 20 96-185 96-543c0-359 153-581 508-581 315 0 475 175 479 493v105H412c10 217 60 393 274 393" id="ae"/><path fill="#008573" d="M1184-305C1184-70 988 0 741 0H35v-109c104 5 170-31 170-133v-622c0-98-69-130-170-125v-109h645c153 0 265 22 338 67s110 110 110 195c0 163-95 240-239 261v10c164 18 295 83 295 260zm-326-14c0-136-72-189-207-187H516v389h146c142 6 196-59 196-202zM653-625c123 1 166-70 168-188 2-114-53-168-168-168H516v356h137" id="af"/><path fill="#008573" d="M205-856c1-104-62-137-170-133v-109h676v117c-109-3-195 21-195 125v231c314-5 635-7 627 303C1137-81 937 0 682 0H35v-109c108 5 170-32 170-131v-616zm612 528c0-169-130-187-301-178v387h113c138 3 188-70 188-209zm832 86c0 99 58 138 159 133V0h-641v-109c104 5 170-31 170-133v-614c0-102-66-138-170-133v-109h641v109c-101-5-159 34-159 133v614" id="ag"/><path fill="#008573" d="M705-989c-62 1-123 3-123 59 0 45 20 61 47 94l114 140c44-57 101-111 135-176 9-19 13-37 13-56 0-57-52-60-111-61v-109h473v109c-126-6-167 60-225 131L817-600l301 383c57 65 88 109 191 108V0H657v-109c112 6 164-41 120-119-47-83-123-156-181-231-57 77-127 143-174 229-9 17-12 35-12 52 0 61 56 68 133 69V0H23v-109c133 7 180-58 241-131l258-311-258-330c-54-63-97-112-203-108v-109h644v109" id="ah"/><g id="e"><use transform="matrix(0.013020833333333332,0,0,0.013020833333333332,0,0)" xlink:href="#aa"/><use transform="matrix(0.013020833333333332,0,0,0.013020833333333332,17.122395833333332,0)" xlink:href="#ab"/><use transform="matrix(0.013020833333333332,0,0,0.013020833333333332,34.752604166666664,0)" xlink:href="#ac"/><use transform="matrix(0.013020833333333332,0,0,0.013020833333333332,59.361979166666664,0)" xlink:href="#ad"/><use transform="matrix(0.013020833333333332,0,0,0.013020833333333332,77.52604166666666,0)" xlink:href="#ae"/><use transform="matrix(0.013020833333333332,0,0,0.013020833333333332,92.74739583333333,0)" xlink:href="#af"/><use transform="matrix(0.013020833333333332,0,0,0.013020833333333332,109.30989583333333,0)" xlink:href="#ag"/><use transform="matrix(0.013020833333333332,0,0,0.013020833333333332,133.4375,0)" xlink:href="#ah"/></g><path fill="#008573" d="M256-109c108 6 171-33 170-137v-735c-74 5-167-16-200 35-29 46-35 127-44 198H41l12-350h1055l12 350H979c-18-105-5-234-125-233H737v735c-1 101 56 143 160 137V0H256v-109" id="ai"/><g id="f"><use transform="matrix(0.013020833333333332,0,0,0.013020833333333332,0,0)" xlink:href="#ai"/><use transform="matrix(0.013020833333333332,0,0,0.013020833333333332,15.117187499999998,0)" xlink:href="#X"/><use transform="matrix(0.013020833333333332,0,0,0.013020833333333332,31.458333333333332,0)" xlink:href="#ad"/><use transform="matrix(0.013020833333333332,0,0,0.013020833333333332,49.62239583333333,0)" xlink:href="#ae"/><use transform="matrix(0.013020833333333332,0,0,0.013020833333333332,64.84375,0)" xlink:href="#aa"/></g><path fill="#1071e5" d="M1325-1194c-8-77-90-138-171-94-107 57-152 220-217 326-44 72-79 133-140 180 148 6 224 93 282 192 73 125 138 265 219 381 40 57 83 101 177 100V0c-146 1-295 6-385-50-59-36-100-83-134-145L762-549c-44-81-83-134-211-127v434c0 84 23 133 106 133h86V0H57v-109h86c79 3 105-42 105-122v-998c1-82-26-125-105-125H57v-108h686v108h-86c-82-2-106 49-106 133v428c152 0 175-60 243-161 106-159 173-426 359-502 33-12 70-19 111-19 101-2 158 42 161 129 2 79-36 140-100 152" id="aj"/><path fill="#1071e5" d="M113-262c-10 96 129 120 181 50 95-128 135-360 170-558 6-36 7-67 7-92 3-109-75-132-186-127v-109h1034v109c-104-5-170 31-170 133v614c0 102 66 138 170 133V0H678v-109c102 5 161-33 160-133v-739H606c-35 301-77 594-178 821C382-57 315 9 172 14 48 18-32-71 10-188c15-42 50-71 103-74" id="ak"/><path fill="#1071e5" d="M526-129c139 0 193-116 193-262v-154c-144 3-272 20-298 142-6 28-11 61-11 98 1 103 24 176 116 176zm193-524c-6-153 30-348-127-346-115 1-136 103-137 221-92 0-160-13-207-31-80-31-88-141-36-202 75-88 224-112 388-113 266-2 430 83 430 348v522c-3 99 29 152 131 145V0H780l-43-141h-18C646-52 578 24 414 20 206 14 92-101 92-313c0-254 188-323 459-334" id="al"/><path fill="#1071e5" d="M952-299c53 28 65 116 26 173C912-25 777 20 604 20 249 20 96-183 96-545c0-366 147-579 502-579 170 0 310 34 380 130 46 63 27 167-26 205-49 36-119 55-213 54-1-102-14-196-69-243-36-31-106-28-144 0-103 75-114 241-114 431 0 139 19 242 57 311s100 103 186 103c149 0 244-68 297-166" id="am"/><path fill="#1071e5" d="M1380-989c-104-5-170 31-170 133v614c0 102 66 138 170 133V0H760v-109c89 1 139-41 139-133v-440L516-262c-6 104 42 154 139 153V0H35v-109c104 5 170-31 170-133v-614c0-102-66-138-170-133v-109h620v109c-89-1-139 41-139 133v436l383-420c5-102-44-150-139-149v-109h620v109" id="an"/><path fill="#1071e5" d="M991 252c-1 102 66 136 170 131v109H526V383c104 5 171-29 170-131V10C419-6 226-120 138-324c-28-67-42-143-42-227 0-371 241-532 600-557v-215c0-98-69-130-170-125v-108h465v450c272 19 465 129 552 332 28 66 42 140 42 223 0 370-236 537-594 561v242zM696-975c-210 27-293 181-293 424 0 241 85 404 293 432v-856zm295 854c205-28 287-191 287-430 0-236-85-396-287-424v854" id="ao"/><path fill="#1071e5" d="M516-242c0 92 50 134 139 133V0H35v-109c104 5 170-31 170-133v-614c0-102-66-138-170-133v-109h620v109c-89-1-139 41-139 133v225c114 0 139-50 192-119 103-134 161-360 400-360 120 0 205 60 166 176-15 45-56 72-111 78-7-68-63-128-138-96-118 81-170 250-284 336 215 25 270 222 365 370 49 76 86 141 209 137V0c-189 2-360 2-455-92-94-92-145-254-222-364-28-40-56-64-122-62v276" id="ap"/><path fill="#1071e5" d="M868-864c0-88-53-126-139-125v-109h610v109c-104-5-170 31-170 133v631c-2 106 87 120 195 116v539h-141c-14-197-12-430-203-430H35v-109c100 5 170-26 170-124v-623c0-102-66-138-170-133v-109h610v109c-89-1-139 41-139 133v739h362v-747" id="aq"/><path fill="#1071e5" d="M442-799c0 119 44 195 162 195h135v-377H604c-115 0-162 68-162 182zm121 690c109 4 176-28 176-137v-237H631L471-188C397-37 229 3 0 0v-109c99 1 135-59 174-122l180-289c-131-37-233-121-233-287 0-237 200-291 448-291h652v109c-110-1-170 27-170 125v618c-1 102 60 144 170 137V0H563v-109" id="ar"/><g id="g"><use transform="matrix(0.013020833333333332,0,0,0.013020833333333332,0,0)" xlink:href="#aj"/><use transform="matrix(0.013020833333333332,0,0,0.013020833333333332,19.205729166666664,0)" xlink:href="#ak"/><use transform="matrix(0.013020833333333332,0,0,0.013020833333333332,36.8359375,0)" xlink:href="#al"/><use transform="matrix(0.013020833333333332,0,0,0.013020833333333332,52.8125,0)" xlink:href="#am"/><use transform="matrix(0.013020833333333332,0,0,0.013020833333333332,66.86197916666667,0)" xlink:href="#am"/><use transform="matrix(0.013020833333333332,0,0,0.013020833333333332,80.91145833333334,0)" xlink:href="#an"/><use transform="matrix(0.013020833333333332,0,0,0.013020833333333332,99.3359375,0)" xlink:href="#ao"/><use transform="matrix(0.013020833333333332,0,0,0.013020833333333332,121.22395833333333,0)" xlink:href="#an"/><use transform="matrix(0.013020833333333332,0,0,0.013020833333333332,139.6484375,0)" xlink:href="#ap"/><use transform="matrix(0.013020833333333332,0,0,0.013020833333333332,156.77083333333334,0)" xlink:href="#al"/><use transform="matrix(0.013020833333333332,0,0,0.013020833333333332,172.74739583333334,0)" xlink:href="#aq"/><use transform="matrix(0.013020833333333332,0,0,0.013020833333333332,191.04166666666669,0)" xlink:href="#an"/><use transform="matrix(0.013020833333333332,0,0,0.013020833333333332,209.46614583333334,0)" xlink:href="#ar"/></g><path fill="#1071e5" d="M256-109c108 6 171-33 170-137v-735c-74 5-167-16-200 35-29 46-35 127-44 198H41l12-350h1055l12 350H979c-18-105-5-234-125-233H737v735c-1 101 56 143 160 137V0H256v-109" id="as"/><path fill="#1071e5" d="M1190-246c-2 106 63 142 170 137V0H684v-109c120 7 195-19 195-137v-260c-116 68-221 137-400 137-181 0-295-92-295-270v-211c2-99-56-139-151-139v-109h602v109c-92-1-139 44-139 137v182c0 94 41 135 131 135 113 0 175-45 252-86v-229c0-95-46-141-140-139v-109h621v109c-107-5-170 31-170 137v606" id="at"/><path fill="#1071e5" d="M682-968c-75-53-166-16-210 62-32 57-53 140-56 249h354c-1-134-12-257-88-311zm4 835c147 0 236-69 289-166 63 29 71 123 31 183C939-17 799 20 627 20 270 20 96-185 96-543c0-359 153-581 508-581 315 0 475 175 479 493v105H412c10 217 60 393 274 393" id="au"/><path fill="#1071e5" d="M705-989c-62 1-123 3-123 59 0 45 20 61 47 94l114 140c44-57 101-111 135-176 9-19 13-37 13-56 0-57-52-60-111-61v-109h473v109c-126-6-167 60-225 131L817-600l301 383c57 65 88 109 191 108V0H657v-109c112 6 164-41 120-119-47-83-123-156-181-231-57 77-127 143-174 229-9 17-12 35-12 52 0 61 56 68 133 69V0H23v-109c133 7 180-58 241-131l258-311-258-330c-54-63-97-112-203-108v-109h644v109" id="av"/><g id="h"><use transform="matrix(0.013020833333333332,0,0,0.013020833333333332,0,0)" xlink:href="#am"/><use transform="matrix(0.013020833333333332,0,0,0.013020833333333332,14.049479166666666,0)" xlink:href="#as"/><use transform="matrix(0.013020833333333332,0,0,0.013020833333333332,29.166666666666664,0)" xlink:href="#al"/><use transform="matrix(0.013020833333333332,0,0,0.013020833333333332,45.143229166666664,0)" xlink:href="#as"/><use transform="matrix(0.013020833333333332,0,0,0.013020833333333332,60.260416666666664,0)" xlink:href="#an"/><use transform="matrix(0.013020833333333332,0,0,0.013020833333333332,78.68489583333333,0)" xlink:href="#at"/><use transform="matrix(0.013020833333333332,0,0,0.013020833333333332,96.84895833333333,0)" xlink:href="#au"/><use transform="matrix(0.013020833333333332,0,0,0.013020833333333332,112.07031249999999,0)" xlink:href="#am"/><use transform="matrix(0.013020833333333332,0,0,0.013020833333333332,126.11979166666669,0)" xlink:href="#ap"/><use transform="matrix(0.013020833333333332,0,0,0.013020833333333332,143.2421875,0)" xlink:href="#an"/><use transform="matrix(0.013020833333333332,0,0,0.013020833333333332,161.66666666666666,0)" xlink:href="#av"/></g><path fill="#1071e5" d="M1090-242c-1 93 50 133 139 133V0H649v-109c93 1 150-38 150-133v-276c-111-4-140 57-183 129C521-228 473-22 234-6 169-2 78 0 0 0v-109c123 5 160-61 209-137 96-148 149-343 364-370-98-80-155-217-245-308-21-21-40-36-74-37-65-1-92 48-102 105-72-9-121-51-121-129 0-94 75-125 176-125 183 0 236 121 311 233 54 82 85 144 139 201 33 35 69 45 142 45v-225c0-95-57-134-150-133v-109h580v109c-89 0-139 40-139 133v225c120 2 144-49 198-119 102-133 157-360 393-360 120 0 208 61 167 176-16 44-56 72-111 78-7-68-64-128-139-96-118 81-169 250-283 336 247 32 285 285 411 439 37 46 80 70 162 68V0c-183 1-350 3-438-92-89-96-142-256-220-364-31-42-67-64-140-62v276" id="aw"/><path fill="#1071e5" d="M631-1124c358 0 526 209 528 571 2 373-172 573-534 573C267 20 98-190 96-553c-2-374 172-571 535-571zM527-966c-131 91-126 390-101 605 16 136 58 252 203 252 203 0 213-228 213-444 0-180-15-339-115-413-51-37-148-36-200 0" id="ax"/><path fill="#1071e5" d="M1184-305C1184-70 988 0 741 0H35v-109c104 5 170-31 170-133v-622c0-98-69-130-170-125v-109h645c153 0 265 22 338 67s110 110 110 195c0 163-95 240-239 261v10c164 18 295 83 295 260zm-326-14c0-136-72-189-207-187H516v389h146c142 6 196-59 196-202zM653-625c123 1 166-70 168-188 2-114-53-168-168-168H516v356h137" id="ay"/><g id="i"><use transform="matrix(0.013020833333333332,0,0,0.013020833333333332,0,0)" xlink:href="#aw"/><use transform="matrix(0.013020833333333332,0,0,0.013020833333333332,24.583333333333332,0)" xlink:href="#au"/><use transform="matrix(0.013020833333333332,0,0,0.013020833333333332,39.8046875,0)" xlink:href="#am"/><use transform="matrix(0.013020833333333332,0,0,0.013020833333333332,53.854166666666664,0)" xlink:href="#as"/><use transform="matrix(0.013020833333333332,0,0,0.013020833333333332,68.97135416666666,0)" xlink:href="#ax"/><use transform="matrix(0.013020833333333332,0,0,0.013020833333333332,85.31249999999999,0)" xlink:href="#ay"/></g><path fill="#cc4e00" d="M672-1337C658-917 516-605 384-300c-27 63-56 121-83 175h565v-1212H672zM414 0C184 2 155 195 152 430H16v-555h125c137-272 275-563 351-887 21-93 32-179 32-258 0-84-97-82-184-84v-108h1020v108c-111-8-170 29-170 137v945c-4 125 80 156 209 147v555h-135c-3-235-33-430-263-430H414" id="az"/><path fill="#cc4e00" d="M682-968c-75-53-166-16-210 62-32 57-53 140-56 249h354c-1-134-12-257-88-311zm4 835c147 0 236-69 289-166 63 29 71 123 31 183C939-17 799 20 627 20 270 20 96-185 96-543c0-359 153-581 508-581 315 0 475 175 479 493v105H412c10 217 60 393 274 393" id="aA"/><path fill="#cc4e00" d="M256-109c108 6 171-33 170-137v-735c-74 5-167-16-200 35-29 46-35 127-44 198H41l12-350h1055l12 350H979c-18-105-5-234-125-233H737v735c-1 101 56 143 160 137V0H256v-109" id="aB"/><path fill="#cc4e00" d="M516-242c0 92 50 134 139 133V0H35v-109c104 5 170-31 170-133v-614c0-102-66-138-170-133v-109h620v109c-89-1-139 41-139 133v225c114 0 139-50 192-119 103-134 161-360 400-360 120 0 205 60 166 176-15 45-56 72-111 78-7-68-63-128-138-96-118 81-170 250-284 336 215 25 270 222 365 370 49 76 86 141 209 137V0c-189 2-360 2-455-92-94-92-145-254-222-364-28-40-56-64-122-62v276" id="aC"/><path fill="#cc4e00" d="M1380-989c-104-5-170 31-170 133v614c0 102 66 138 170 133V0H760v-109c89 1 139-41 139-133v-440L516-262c-6 104 42 154 139 153V0H35v-109c104 5 170-31 170-133v-614c0-102-66-138-170-133v-109h620v109c-89-1-139 41-139 133v436l383-420c5-102-44-150-139-149v-109h620v109" id="aD"/><path fill="#cc4e00" d="M508 250c-2 110 76 140 190 133v109H27V383c104 5 170-31 170-133V-846c3-105-46-149-152-143v-109h401l37 160h9c59-105 150-180 313-180 324 0 420 241 420 573 0 329-93 565-412 570-159 2-247-66-307-164h-14c13 122 18 252 16 389zm0-795c0 210 7 418 209 418 69 0 115-35 147-103 57-120 56-503 0-626-33-71-78-109-145-109-201 0-211 211-211 420" id="aE"/><path fill="#cc4e00" d="M631-1124c358 0 526 209 528 571 2 373-172 573-534 573C267 20 98-190 96-553c-2-374 172-571 535-571zM527-966c-131 91-126 390-101 605 16 136 58 252 203 252 203 0 213-228 213-444 0-180-15-339-115-413-51-37-148-36-200 0" id="aF"/><path fill="#cc4e00" d="M1184-305C1184-70 988 0 741 0H35v-109c104 5 170-31 170-133v-622c0-98-69-130-170-125v-109h645c153 0 265 22 338 67s110 110 110 195c0 163-95 240-239 261v10c164 18 295 83 295 260zm-326-14c0-136-72-189-207-187H516v389h146c142 6 196-59 196-202zM653-625c123 1 166-70 168-188 2-114-53-168-168-168H516v356h137" id="aG"/><path fill="#cc4e00" d="M526-129c139 0 193-116 193-262v-154c-144 3-272 20-298 142-6 28-11 61-11 98 1 103 24 176 116 176zm193-524c-6-153 30-348-127-346-115 1-136 103-137 221-92 0-160-13-207-31-80-31-88-141-36-202 75-88 224-112 388-113 266-2 430 83 430 348v522c-3 99 29 152 131 145V0H780l-43-141h-18C646-52 578 24 414 20 206 14 92-101 92-313c0-254 188-323 459-334" id="aH"/><path fill="#cc4e00" d="M1380-989c-104-5-170 31-170 133v614c0 102 66 138 170 133V0H760v-109c89 1 139-41 139-133v-264H516v264c0 92 50 134 139 133V0H35v-109c104 5 170-31 170-133v-614c0-102-66-138-170-133v-109h620v109c-89-1-139 41-139 133v233h383v-233c0-92-50-134-139-133v-109h620v109" id="aI"/><g id="j"><use transform="matrix(0.013020833333333332,0,0,0.013020833333333332,0,0)" xlink:href="#az"/><use transform="matrix(0.013020833333333332,0,0,0.013020833333333332,18.880208333333332,0)" xlink:href="#aA"/><use transform="matrix(0.013020833333333332,0,0,0.013020833333333332,34.1015625,0)" xlink:href="#aB"/><use transform="matrix(0.013020833333333332,0,0,0.013020833333333332,49.21875,0)" xlink:href="#aA"/><use transform="matrix(0.013020833333333332,0,0,0.013020833333333332,64.44010416666667,0)" xlink:href="#aC"/><use transform="matrix(0.013020833333333332,0,0,0.013020833333333332,81.5625,0)" xlink:href="#aB"/><use transform="matrix(0.013020833333333332,0,0,0.013020833333333332,96.6796875,0)" xlink:href="#aD"/><use transform="matrix(0.013020833333333332,0,0,0.013020833333333332,115.10416666666666,0)" xlink:href="#aE"/><use transform="matrix(0.013020833333333332,0,0,0.013020833333333332,132.3046875,0)" xlink:href="#aF"/><use transform="matrix(0.013020833333333332,0,0,0.013020833333333332,148.64583333333334,0)" xlink:href="#aG"/><use transform="matrix(0.013020833333333332,0,0,0.013020833333333332,165.20833333333334,0)" xlink:href="#aH"/><use transform="matrix(0.013020833333333332,0,0,0.013020833333333332,181.18489583333334,0)" xlink:href="#aI"/><use transform="matrix(0.013020833333333332,0,0,0.013020833333333332,199.609375,0)" xlink:href="#aD"/><use transform="matrix(0.013020833333333332,0,0,0.013020833333333332,218.03385416666666,0)" xlink:href="#aA"/></g><path fill="#333" d="M1010-391c0 288-209 411-504 411-227 0-400-72-408-288-3-85 58-140 148-138 13 184 83 323 276 326 176 3 296-86 293-258-4-208-164-249-317-319-197-90-377-181-377-455 0-256 189-371 448-371 165 0 292 46 357 143 39 57 33 148-18 186-30 22-68 34-117 34-4-156-72-260-230-260-155 0-250 80-250 233 0 217 160 262 318 332 152 68 291 135 355 283 17 42 26 88 26 141" id="aJ"/><path fill="#333" d="M434-233c-3 120 73 154 195 147V0H47v-86c118 6 195-21 195-137v-649c2-108-66-143-174-140v-86h366v865zM330-1303c-79 0-117-45-117-127s37-126 117-126c79 0 116 46 116 126 0 81-37 127-116 127" id="aK"/><path fill="#333" d="M434-223c-3 108 66 141 174 137V0H57v-86c118 6 185-31 185-147v-639c2-108-66-143-174-140v-86h331l27 166h10c63-113 148-188 320-186 244 3 343 152 344 401v484c-4 110 54 152 164 147V0H907v-707c0-170-55-282-225-280-187 3-248 145-248 332v432" id="aL"/><path fill="#333" d="M956-1161c125-12 164 158 62 205-14 6-30 8-49 8 9-84-106-83-156-45 48 62 81 134 80 248-2 265-188 381-475 346-48 26-98 54-99 125-1 68 58 77 127 77h232c215 1 338 97 338 306 0 294-237 379-543 383-249 3-426-81-426-299C47 28 162-41 303-70c-62-29-113-79-113-168 0-105 57-142 134-192-112-50-185-152-185-309 0-249 134-379 385-379 97 0 179 25 234 67 49-50 103-100 198-110zM438-14c-139-3-225 52-225 194 0 158 102 212 264 211 212-1 363-46 371-248C856-58 624-10 438-14zm78-1004c-150 0-184 109-184 273 0 159 39 250 186 253 149 3 184-105 182-256-2-165-33-270-184-270" id="aM"/><path fill="#333" d="M414-233c-4 120 72 154 194 147V0H27v-86c122 7 194-28 194-147v-1098c3-115-76-146-194-139v-86h387v1323" id="aN"/><path fill="#333" d="M786-645c-4-191-36-363-223-363-76 0-134 30-175 92s-66 152-73 271h471zm123 393c43 21 51 90 17 136C862-29 744 20 588 20c-331 0-471-225-475-561-4-348 134-577 454-577 327 0 443 231 426 583H311c7 242 67 426 305 426 140 0 234-60 293-143" id="aO"/><g id="k"><use transform="matrix(0.013020833333333332,0,0,0.013020833333333332,0,0)" xlink:href="#aJ"/><use transform="matrix(0.013020833333333332,0,0,0.013020833333333332,14.505208333333332,0)" xlink:href="#aK"/><use transform="matrix(0.013020833333333332,0,0,0.013020833333333332,23.033854166666664,0)" xlink:href="#aL"/><use transform="matrix(0.013020833333333332,0,0,0.013020833333333332,40.234375,0)" xlink:href="#aM"/><use transform="matrix(0.013020833333333332,0,0,0.013020833333333332,54.58333333333333,0)" xlink:href="#aN"/><use transform="matrix(0.013020833333333332,0,0,0.013020833333333332,62.85156249999999,0)" xlink:href="#aO"/></g><path fill="#333" d="M414-223c-3 108 66 141 174 137V0H37v-86c117 6 184-31 184-147v-1098c2-112-70-144-184-139v-86h377c-3 208 7 429-8 624h10c61-124 162-186 301-186 253 1 362 144 362 401v484c-3 110 54 152 164 147V0H887v-707c0-170-55-283-225-280-186 3-248 143-248 332v432" id="aP"/><path fill="#333" d="M594-1118c338 0 472 222 475 567 2 360-143 571-481 571S115-205 113-551c-2-359 142-567 481-567zm-4 108c-241 0-279 212-279 459 0 249 39 465 281 465s278-216 278-465c0-248-38-459-280-459" id="aQ"/><path fill="#333" d="M387-291c-2 124 47 200 156 203 51 1 88-6 131-14v90C626 8 560 18 492 20 278 25 195-83 195-297v-684H39v-82c170-8 224-133 254-287h94v252h268v117H387v690" id="aR"/><g id="l"><use transform="matrix(0.013020833333333332,0,0,0.013020833333333332,0,0)" xlink:href="#aJ"/><use transform="matrix(0.013020833333333332,0,0,0.013020833333333332,14.505208333333332,0)" xlink:href="#aP"/><use transform="matrix(0.013020833333333332,0,0,0.013020833333333332,31.432291666666664,0)" xlink:href="#aQ"/><use transform="matrix(0.013020833333333332,0,0,0.013020833333333332,46.822916666666664,0)" xlink:href="#aR"/></g><path fill="#333" d="M705-1462c450 9 667 274 667 729S1160 0 705 0H78v-86c122 7 194-27 194-147v-1004c3-115-76-146-194-139v-86h627zm440 729c2-374-134-623-486-627H479v1256h178c362-7 486-260 488-629" id="aS"/><path fill="#333" d="M893-256c39 28 47 103 13 150C845-22 730 20 580 20c-332 0-467-220-467-563 0-349 119-575 456-575 140 0 259 39 325 116 44 51 42 161-14 193-31 18-76 29-137 29-1-134-38-239-174-236-232 6-258 224-258 471 0 264 65 427 310 432 127 2 227-62 272-143" id="aT"/><path fill="#333" d="M434-223C430-95 529-79 659-86V0H68v-86c112 4 174-35 174-147v-639c2-108-66-143-174-140v-86h315l39 203h10c50-120 106-223 281-223 151 0 257 68 211 208-21 64-90 87-181 87-2-101-16-160-108-160-128 0-157 140-183 255-33 148-12 333-18 505" id="aU"/><g id="m"><use transform="matrix(0.013020833333333332,0,0,0.013020833333333332,0,0)" xlink:href="#aS"/><use transform="matrix(0.013020833333333332,0,0,0.013020833333333332,19.388020833333332,0)" xlink:href="#aO"/><use transform="matrix(0.013020833333333332,0,0,0.013020833333333332,33.658854166666664,0)" xlink:href="#aR"/><use transform="matrix(0.013020833333333332,0,0,0.013020833333333332,42.78645833333333,0)" xlink:href="#aO"/><use transform="matrix(0.013020833333333332,0,0,0.013020833333333332,57.057291666666664,0)" xlink:href="#aT"/><use transform="matrix(0.013020833333333332,0,0,0.013020833333333332,70.18229166666666,0)" xlink:href="#aR"/><use transform="matrix(0.013020833333333332,0,0,0.013020833333333332,79.03645833333331,0)" xlink:href="#aQ"/><use transform="matrix(0.013020833333333332,0,0,0.013020833333333332,94.42708333333331,0)" xlink:href="#aU"/></g><path fill="#333" d="M1141-289c47 27 51 110 13 159C1076-28 927 20 739 20c-439 0-622-310-622-753 0-346 130-585 372-695 199-90 579-71 673 84 39 64 27 161-25 196-32 21-74 38-127 38-5-158-78-264-240-264-349 0-426 285-426 641 0 266 62 478 232 573 54 30 119 45 194 45 183 1 293-72 371-174" id="aV"/><use transform="matrix(0.013020833333333332,0,0,0.013020833333333332,0,0)" xlink:href="#aV" id="n"/><path fill="#333" d="M242-872c3-116-77-146-195-140v-86h1274v86c-118-6-195 22-195 138v651c-3 116 77 143 195 137V0H760v-86c108 4 174-29 174-137v-781H434v781c-3 108 66 141 174 137V0H47v-86c118 6 195-21 195-137v-649" id="aW"/><path fill="#333" d="M594-1118c338 0 472 222 475 567 2 360-143 571-481 571S115-205 113-551c-2-359 142-567 481-567zm-4 108c-241 0-279 212-279 459 0 249 39 465 281 465s278-216 278-465c0-248-38-459-280-459" id="aX"/><path fill="#333" d="M1370-223c-3 116 77 143 195 137V0h-561v-86c108 4 174-29 174-137v-656h-15L807 0h-94L367-879h-15v656c-3 108 66 141 174 137V0H47v-86c118 6 195-21 195-137v-649c3-116-77-146-195-140v-86h438l324 828 338-828h418v86c-118-6-195 22-195 138v651" id="aY"/><path fill="#333" d="M1696-211c-1 106 86 121 194 117v524h-100c-12-202-14-430-209-430H47v-86c119 7 195-23 195-139v-649c3-116-77-144-195-138v-86h549v86c-108-4-174 30-174 138v780h457v-780c2-108-66-142-174-138v-86h528v86c-108-4-174 30-174 138v780h457v-780c2-108-66-142-175-138v-86h549v86c-118-6-194 22-194 138v663" id="aZ"/><path fill="#333" d="M242-872c3-116-77-146-195-140v-86h582v86c-118-6-195 24-195 140v262c324-1 672-25 672 297C1106-84 924 0 682 0H47v-86c118 6 195-21 195-137v-649zm657 548c-3-151-110-192-268-192H434v422h209c169 3 259-62 256-230" id="ba"/><path fill="#333" d="M1192-1118c330 0 452 229 455 567 3 355-132 571-461 571-320 0-443-217-455-536H434v293c-3 108 66 141 174 137V0H47v-86c118 6 195-21 195-137v-649c3-116-77-146-195-140v-86h561v86c-108-4-174 30-174 138v264h297c15-317 149-508 461-508zm-4 108c-232 0-258 219-258 459 0 241 27 465 260 465 231 0 258-224 258-465 0-240-29-459-260-459" id="bb"/><g id="o"><use transform="matrix(0.013020833333333332,0,0,0.013020833333333332,0,0)" xlink:href="#aW"/><use transform="matrix(0.013020833333333332,0,0,0.013020833333333332,17.8125,0)" xlink:href="#aX"/><use transform="matrix(0.013020833333333332,0,0,0.013020833333333332,33.203125,0)" xlink:href="#aY"/><use transform="matrix(0.013020833333333332,0,0,0.013020833333333332,54.19270833333333,0)" xlink:href="#aX"/><use transform="matrix(0.013020833333333332,0,0,0.013020833333333332,69.58333333333333,0)" xlink:href="#aZ"/><use transform="matrix(0.013020833333333332,0,0,0.013020833333333332,94.8046875,0)" xlink:href="#ba"/><use transform="matrix(0.013020833333333332,0,0,0.013020833333333332,110.67708333333333,0)" xlink:href="#bb"/></g><path fill="#333" d="M1372-223c-3 116 77 143 195 137V0H971v-86c122 7 194-27 194-147v-811L479-274C465-129 532-75 674-86V0H78v-86c122 7 194-27 194-147v-1004c3-115-76-146-194-139v-86h596v86c-122-7-195 27-195 147v811l686-770c14-145-53-199-194-188v-86h596v86c-122-7-195 27-195 147v1006" id="bc"/><path fill="#333" d="M1352-223c-3 116 77 143 194 137V0H950v-86c123 7 195-27 195-147v-480H479v480c-3 120 73 154 195 147V0H78v-86c122 7 194-27 194-147v-1004c3-115-76-146-194-139v-86h596v86c-122-7-195 27-195 147v414h666v-414c3-120-72-154-195-147v-86h596v86c-122-7-194 27-194 147v1006" id="bd"/><g id="p"><use transform="matrix(0.013020833333333332,0,0,0.013020833333333332,0,0)" xlink:href="#bc"/><use transform="matrix(0.013020833333333332,0,0,0.013020833333333332,21.419270833333332,0)" xlink:href="#bd"/><use transform="matrix(0.013020833333333332,0,0,0.013020833333333332,42.565104166666664,0)" xlink:href="#aV"/></g><path fill="#333" d="M1649-233c-4 120 72 154 194 147V0h-545v-86c102 5 154-32 154-129v-1094L983 0H872L397-1305v1072c-4 108 46 153 154 147V0H78v-86c117 6 194-21 194-137v-1014c3-115-76-146-194-139v-86h467L969-291l420-1171h454v86c-122-7-194 27-194 147v996" id="be"/><path fill="#333" d="M844-1331c2-112-71-145-185-139v-86h377v1331c-2 112 71 145 185 139V0H874l-22-184h-8C786-68 701 20 530 20c-321 0-417-237-417-567 0-331 95-571 417-571 163 0 254 76 314 180h12c-10-128-14-255-12-393zM563-987c-219 0-252 212-252 442 0 145 20 254 59 326s104 108 195 108c242 2 279-192 279-436s-41-440-281-440" id="bf"/><path fill="#333" d="M467-106c176 0 267-107 272-285v-166c-189 6-378 9-423 154-10 31-15 66-15 106 0 123 47 191 166 191zm272-535c5-199 13-375-190-375-142 0-190 83-187 223-106-2-174-27-174-129 0-169 191-191 369-196 250-7 375 104 375 354v531c-3 100 32 153 133 147V0H788l-32-176h-17C664-76 596 23 420 20 213 16 102-97 102-307c0-109 41-186 116-242 100-75 325-89 521-92" id="bg"/><path fill="#333" d="M479-223C473-90 582-80 715-86V0H78v-86c122 7 194-27 194-147v-1004c3-115-76-146-194-139v-86h575c309 2 504 125 504 428 0 321-213 462-549 465H479v346zm457-803c0-225-92-342-318-338H479v698h109c246 7 348-114 348-360" id="bh"/><path fill="#333" d="M946-553c0-230-32-430-254-434-242-4-278 193-278 436s40 440 280 440c221 0 252-212 252-442zm-219-565c321 0 418 237 418 567 0 331-96 571-418 571-163 0-254-75-313-180h-8c7 140 10 280 8 428-2 108 66 142 174 138v86H37v-86c118 6 184-32 184-148V-872c3-116-76-146-194-140v-86h358l21 185h8c57-116 142-205 313-205" id="bi"/><g id="q"><use transform="matrix(0.013020833333333332,0,0,0.013020833333333332,0,0)" xlink:href="#be"/><use transform="matrix(0.013020833333333332,0,0,0.013020833333333332,25.013020833333332,0)" xlink:href="#aO"/><use transform="matrix(0.013020833333333332,0,0,0.013020833333333332,39.283854166666664,0)" xlink:href="#bf"/><use transform="matrix(0.013020833333333332,0,0,0.013020833333333332,55.651041666666664,0)" xlink:href="#aK"/><use transform="matrix(0.013020833333333332,0,0,0.013020833333333332,64.1796875,0)" xlink:href="#bg"/><use transform="matrix(0.013020833333333332,0,0,0.013020833333333332,79.19270833333333,0)" xlink:href="#bh"/><use transform="matrix(0.013020833333333332,0,0,0.013020833333333332,95.29947916666666,0)" xlink:href="#aK"/><use transform="matrix(0.013020833333333332,0,0,0.013020833333333332,103.82812499999999,0)" xlink:href="#bi"/><use transform="matrix(0.013020833333333332,0,0,0.013020833333333332,120.19531249999999,0)" xlink:href="#aO"/></g><path fill="#333" d="M1352-223c-3 116 77 143 194 137V0H950v-86c123 7 195-27 195-147v-480H479v480c-3 120 73 154 195 147V0H78v-86c122 7 194-27 194-147v-1004c3-115-76-146-194-139v-86h596v86c-122-7-195 27-195 147v414h666v-414c3-120-72-154-195-147v-86h596v86c-122-7-194 27-194 147v1006" id="bj"/><path fill="#333" d="M834-301C834-70 665 20 430 20 250 20 92-26 92-197c0-88 47-135 129-141 1 157 63 257 221 260 156 3 257-97 214-252-47-85-142-109-240-157-153-75-310-122-310-340 0-212 169-289 386-289 130 0 232 36 280 116 31 53 24 126-20 162-26 22-62 33-109 33 0-130-49-217-176-217-120 1-195 48-195 164 0 149 143 163 254 217 154 74 308 124 308 340" id="bk"/><g id="r"><use transform="matrix(0.013020833333333332,0,0,0.013020833333333332,0,0)" xlink:href="#bj"/><use transform="matrix(0.013020833333333332,0,0,0.013020833333333332,21.145833333333332,0)" xlink:href="#bg"/><use transform="matrix(0.013020833333333332,0,0,0.013020833333333332,36.158854166666664,0)" xlink:href="#aL"/><use transform="matrix(0.013020833333333332,0,0,0.013020833333333332,53.35937499999999,0)" xlink:href="#bf"/><use transform="matrix(0.013020833333333332,0,0,0.013020833333333332,69.7265625,0)" xlink:href="#bk"/></g><path fill="#333" d="M1114-856c-13-63-43-115-115-115-33 0-64 13-92 39-87 80-159 247-260 316 139 5 192 88 250 178 88 137 131 347 342 352V0c-167 3-305-4-377-96-80-102-131-261-209-367-43-57-116-68-219-67v307c-3 108 66 141 174 137V0H37v-86c127 8 205-23 205-147v-639c3-120-82-147-205-140v-86h571v86c-103-2-174 25-174 129v258c123 2 152-45 207-120 82-112 155-292 294-349 28-11 62-16 101-16 119 0 203 62 168 176-13 41-46 68-90 78" id="bl"/><path fill="#333" d="M90-254c-4 103 152 127 205 49 94-137 136-375 169-583 6-38 7-71 7-97 2-110-83-131-195-127v-86h963v86c-118-6-195 22-195 138v651c-3 116 77 143 195 137V0H678v-86c108 4 174-29 174-137v-781H588c-36 302-75 611-178 844C365-58 305 13 164 14 62 15 1-33 0-129c-1-63 30-125 90-125" id="bm"/><path fill="#333" d="M467-106c176 0 267-107 272-285v-166c-189 6-378 9-423 154-10 31-15 66-15 106 0 123 47 191 166 191zm272-535c5-199 13-375-190-375-142 0-190 83-187 223-106-2-174-27-174-129 0-169 191-191 369-196 250-7 375 104 375 354v531c-3 100 32 153 133 147V0H788l-32-176h-17C664-76 596 23 420 20 213 16 102-97 102-307c0-109 41-186 116-242 100-75 325-89 521-92" id="bn"/><path fill="#333" d="M893-256c39 28 47 103 13 150C845-22 730 20 580 20c-332 0-467-220-467-563 0-349 119-575 456-575 140 0 259 39 325 116 44 51 42 161-14 193-31 18-76 29-137 29-1-134-38-239-174-236-232 6-258 224-258 471 0 264 65 427 310 432 127 2 227-62 272-143" id="bo"/><path fill="#333" d="M975-866c4-113-64-149-174-146v-86h561v86c-118-6-195 22-195 138v651c-3 116 77 143 195 137V0H780v-86c118 6 195-21 195-137v-510L434-233c-7 124 73 154 195 147V0H47v-86c118 6 195-21 195-137v-649c3-116-77-146-195-140v-86h582v86c-118-6-195 22-195 138v512" id="bp"/><path fill="#333" d="M823 260c-3 120 72 155 195 148v86H453v-86c123 7 194-28 194-148V16C309-11 113-189 113-551c0-363 190-539 534-563v-217c3-115-76-146-194-139v-86h370v442c333 30 531 203 533 563 2 363-190 544-533 567v244zM647-1006c-239 25-330 188-330 455 0 268 89 436 330 461v-916zM823-90c240-25 328-193 328-461 0-266-90-430-328-455v916" id="bq"/><path fill="#333" d="M1147-229c-4 115 76 142 194 135v524h-100c-11-202-13-430-209-430H68v-86c108 4 174-31 174-139v-649c3-116-77-144-195-138v-86h582v86c-118-6-195 22-195 138v780h520v-780c3-116-76-144-194-138v-86h581v86c-118-6-194 22-194 138v645" id="br"/><g id="s"><use transform="matrix(0.013020833333333332,0,0,0.013020833333333332,0,0)" xlink:href="#bl"/><use transform="matrix(0.013020833333333332,0,0,0.013020833333333332,16.40625,0)" xlink:href="#bm"/><use transform="matrix(0.013020833333333332,0,0,0.013020833333333332,33.151041666666664,0)" xlink:href="#bn"/><use transform="matrix(0.013020833333333332,0,0,0.013020833333333332,48.1640625,0)" xlink:href="#bo"/><use transform="matrix(0.013020833333333332,0,0,0.013020833333333332,61.28906249999999,0)" xlink:href="#bo"/><use transform="matrix(0.013020833333333332,0,0,0.013020833333333332,74.4140625,0)" xlink:href="#bp"/><use transform="matrix(0.013020833333333332,0,0,0.013020833333333332,92.76041666666666,0)" xlink:href="#bq"/><use transform="matrix(0.013020833333333332,0,0,0.013020833333333332,111.87499999999999,0)" xlink:href="#bp"/><use transform="matrix(0.013020833333333332,0,0,0.013020833333333332,130.22135416666666,0)" xlink:href="#bl"/><use transform="matrix(0.013020833333333332,0,0,0.013020833333333332,146.62760416666666,0)" xlink:href="#bn"/><use transform="matrix(0.013020833333333332,0,0,0.013020833333333332,161.640625,0)" xlink:href="#br"/><use transform="matrix(0.013020833333333332,0,0,0.013020833333333332,179.7265625,0)" xlink:href="#bp"/><use transform="matrix(0.013020833333333332,0,0,0.013020833333333332,198.07291666666666,0)" xlink:href="#bp"/></g><g id="t"><use transform="matrix(0.013020833333333332,0,0,0.013020833333333332,0,0)" xlink:href="#aW"/><use transform="matrix(0.013020833333333332,0,0,0.013020833333333332,17.8125,0)" xlink:href="#aX"/></g><path fill="#333" d="M270-86c118 6 195-21 195-137v-781c-94 7-221-23-269 35-36 43-42 127-55 199H41l12-328h1014l12 328H979c-20-114-16-234-154-234H657v781C652-99 746-79 872-86V0H270v-86" id="bs"/><path fill="#333" d="M1069-223c-3 116 77 143 195 137V0H682v-86c118 6 195-21 195-137v-291c-111 68-213 137-388 137-177 0-284-88-284-262v-233c2-108-66-143-174-140v-86h540v86c-108-4-174 30-174 138v215c0 99 61 148 164 147 135-1 220-45 316-90v-270c2-109-67-143-175-140v-86h562v86c-118-6-195 22-195 138v651" id="bt"/><g id="u"><use transform="matrix(0.013020833333333332,0,0,0.013020833333333332,0,0)" xlink:href="#bs"/><use transform="matrix(0.013020833333333332,0,0,0.013020833333333332,14.583333333333332,0)" xlink:href="#aX"/><use transform="matrix(0.013020833333333332,0,0,0.013020833333333332,29.973958333333332,0)" xlink:href="#bt"/><use transform="matrix(0.013020833333333332,0,0,0.013020833333333332,47.04427083333333,0)" xlink:href="#bl"/><use transform="matrix(0.013020833333333332,0,0,0.013020833333333332,63.45052083333333,0)" xlink:href="#bn"/><use transform="matrix(0.013020833333333332,0,0,0.013020833333333332,78.46354166666666,0)" xlink:href="#aY"/></g><path fill="#333" d="M248-1223c1-83-28-131-107-131H57v-108c347 13 826-44 1037 90 97 62 147 154 147 282 0 190-114 265-258 312v10c178 49 320 147 320 367 0 135-49 235-147 301S912 0 717 0H57v-109h84c83 3 107-49 107-133v-981zm710 815c0-188-59-298-247-294H571v577h136c187 6 251-95 251-283zm-61-682c0-177-76-253-252-247h-74v510h78c181 6 248-82 248-263" id="bu"/><path fill="#333" d="M705-989c-62 1-123 3-123 59 0 45 20 61 47 94l114 140c44-57 101-111 135-176 9-19 13-37 13-56 0-57-52-60-111-61v-109h473v109c-126-6-167 60-225 131L817-600l301 383c57 65 88 109 191 108V0H657v-109c112 6 164-41 120-119-47-83-123-156-181-231-57 77-127 143-174 229-9 17-12 35-12 52 0 61 56 68 133 69V0H23v-109c133 7 180-58 241-131l258-311-258-330c-54-63-97-112-203-108v-109h644v109" id="bv"/><path fill="#333" d="M631-1124c358 0 526 209 528 571 2 373-172 573-534 573C267 20 98-190 96-553c-2-374 172-571 535-571zM527-966c-131 91-126 390-101 605 16 136 58 252 203 252 203 0 213-228 213-444 0-180-15-339-115-413-51-37-148-36-200 0" id="bw"/><path fill="#333" d="M375-870c1-100-76-120-176-119v-109h1005v109c-104-5-170 31-170 133v631c-2 106 87 120 195 116v539h-142C1075 231 1075 0 885 0H377C164-3 186 233 168 430H27v-547h141c99-170 165-417 200-659 5-36 7-67 7-94zm358-111H514c-32 341-88 622-203 864h422v-864" id="bx"/><path fill="#333" d="M1380-989c-104-5-170 31-170 133v614c0 102 66 138 170 133V0H760v-109c89 1 139-41 139-133v-264H516v264c0 92 50 134 139 133V0H35v-109c104 5 170-31 170-133v-614c0-102-66-138-170-133v-109h620v109c-89-1-139 41-139 133v233h383v-233c0-92-50-134-139-133v-109h620v109" id="by"/><path fill="#333" d="M682-968c-75-53-166-16-210 62-32 57-53 140-56 249h354c-1-134-12-257-88-311zm4 835c147 0 236-69 289-166 63 29 71 123 31 183C939-17 799 20 627 20 270 20 96-185 96-543c0-359 153-581 508-581 315 0 475 175 479 493v105H412c10 217 60 393 274 393" id="bz"/><g id="v"><use transform="matrix(0.015190972222222219,0,0,0.015190972222222219,0,0)" xlink:href="#bu"/><use transform="matrix(0.015190972222222219,0,0,0.015190972222222219,20.90277777777777,0)" xlink:href="#bv"/><use transform="matrix(0.015190972222222219,0,0,0.015190972222222219,41.00043402777777,0)" xlink:href="#bw"/><use transform="matrix(0.015190972222222219,0,0,0.015190972222222219,59.44227430555554,0)" xlink:href="#bx"/><use transform="matrix(0.015190972222222219,0,0,0.015190972222222219,78.88671874999999,0)" xlink:href="#by"/><use transform="matrix(0.015190972222222219,0,0,0.015190972222222219,100.38194444444443,0)" xlink:href="#bw"/><use transform="matrix(0.015190972222222219,0,0,0.015190972222222219,119.44661458333331,0)" xlink:href="#bz"/></g><path fill="#333" d="M1380-989c-104-5-170 31-170 133v614c0 102 66 138 170 133V0H760v-109c89 1 139-41 139-133v-440L516-262c-6 104 42 154 139 153V0H35v-109c104 5 170-31 170-133v-614c0-102-66-138-170-133v-109h620v109c-89-1-139 41-139 133v436l383-420c5-102-44-150-139-149v-109h620v109" id="bA"/><path fill="#333" d="M272-373c5 159 68 279 224 279 131 0 190-82 190-211 0-143-84-202-237-201H311v-131h140c132 0 200-66 200-194 0-103-38-175-141-175-129 0-162 112-166 242-124-1-217-27-217-147 0-118 96-164 205-191 160-40 413-19 517 50 66 43 116 101 116 200 0 159-106 234-236 272v11c154 31 272 89 272 256 0 258-233 326-505 331-142 2-252-19-333-69-57-35-93-84-93-164 0-114 74-159 202-158" id="bB"/><path fill="#333" d="M623 20C239 20 98-236 98-653c0-473 113-812 549-848 120-10 244-16 341-47 22-8 37-18 46-31h96c8 343-347 310-638 358-146 24-224 97-240 251-4 39-9 83-12 134h8c60-141 189-225 389-225 351 0 522 185 522 539-1 357-177 542-536 542zm0-129c201 0 219-202 219-411 0-210-17-412-219-412S414-728 414-520c0 135 17 236 50 306s86 105 159 105" id="bC"/><path fill="#333" d="M508 250c-2 110 76 140 190 133v109H27V383c104 5 170-31 170-133V-846c3-105-46-149-152-143v-109h401l37 160h9c59-105 150-180 313-180 324 0 420 241 420 573 0 329-93 565-412 570-159 2-247-66-307-164h-14c13 122 18 252 16 389zm0-795c0 210 7 418 209 418 69 0 115-35 147-103 57-120 56-503 0-626-33-71-78-109-145-109-201 0-211 211-211 420" id="bD"/><path fill="#333" d="M526-129c139 0 193-116 193-262v-154c-144 3-272 20-298 142-6 28-11 61-11 98 1 103 24 176 116 176zm193-524c-6-153 30-348-127-346-115 1-136 103-137 221-92 0-160-13-207-31-80-31-88-141-36-202 75-88 224-112 388-113 266-2 430 83 430 348v522c-3 99 29 152 131 145V0H780l-43-141h-18C646-52 578 24 414 20 206 14 92-101 92-313c0-254 188-323 459-334" id="bE"/><path fill="#333" d="M1090-242c-1 93 50 133 139 133V0H649v-109c93 1 150-38 150-133v-276c-111-4-140 57-183 129C521-228 473-22 234-6 169-2 78 0 0 0v-109c123 5 160-61 209-137 96-148 149-343 364-370-98-80-155-217-245-308-21-21-40-36-74-37-65-1-92 48-102 105-72-9-121-51-121-129 0-94 75-125 176-125 183 0 236 121 311 233 54 82 85 144 139 201 33 35 69 45 142 45v-225c0-95-57-134-150-133v-109h580v109c-89 0-139 40-139 133v225c120 2 144-49 198-119 102-133 157-360 393-360 120 0 208 61 167 176-16 44-56 72-111 78-7-68-64-128-139-96-118 81-169 250-283 336 247 32 285 285 411 439 37 46 80 70 162 68V0c-183 1-350 3-438-92-89-96-142-256-220-364-31-42-67-64-140-62v276" id="bF"/><g id="w"><use transform="matrix(0.015190972222222219,0,0,0.015190972222222219,0,0)" xlink:href="#bA"/><use transform="matrix(0.015190972222222219,0,0,0.015190972222222219,21.49522569444444,0)" xlink:href="#bB"/><use transform="matrix(0.015190972222222219,0,0,0.015190972222222219,37.9470486111111,0)" xlink:href="#bw"/><use transform="matrix(0.015190972222222219,0,0,0.015190972222222219,57.011718749999986,0)" xlink:href="#bw"/><use transform="matrix(0.015190972222222219,0,0,0.015190972222222219,76.07638888888887,0)" xlink:href="#bC"/><use transform="matrix(0.015190972222222219,0,0,0.015190972222222219,95.14105902777776,0)" xlink:href="#bD"/><use transform="matrix(0.015190972222222219,0,0,0.015190972222222219,115.20833333333331,0)" xlink:href="#bE"/><use transform="matrix(0.015190972222222219,0,0,0.015190972222222219,133.84765624999997,0)" xlink:href="#bF"/><use transform="matrix(0.015190972222222219,0,0,0.015190972222222219,162.52821180555551,0)" xlink:href="#bz"/><use transform="matrix(0.015190972222222219,0,0,0.015190972222222219,180.2864583333333,0)" xlink:href="#by"/><use transform="matrix(0.015190972222222219,0,0,0.015190972222222219,201.78168402777771,0)" xlink:href="#bA"/><use transform="matrix(0.015190972222222219,0,0,0.015190972222222219,223.27690972222214,0)" xlink:href="#bz"/></g><path fill="#333" d="M457-733c0 340 76 592 413 590 189-1 297-89 379-195 43 38 45 120 12 178-72 126-231 182-440 180-475-5-708-280-708-753 0-354 144-589 399-695 222-92 634-71 745 90 51 74 23 182-37 220-47 30-110 51-190 51-4-161-63-285-225-285-310 0-348 300-348 619" id="bG"/><path fill="#333" d="M205-856c0-102-66-138-170-133v-109h964v348H858c-15-93-3-214-93-227-74-10-168-2-249-4v739c-1 108 68 141 180 133V0H35v-109c104 5 170-31 170-133v-614" id="bH"/><path fill="#333" d="M113-262c-10 96 129 120 181 50 95-128 135-360 170-558 6-36 7-67 7-92 3-109-75-132-186-127v-109h1034v109c-104-5-170 31-170 133v614c0 102 66 138 170 133V0H678v-109c102 5 161-33 160-133v-739H606c-35 301-77 594-178 821C382-57 315 9 172 14 48 18-32-71 10-188c15-42 50-71 103-74" id="bI"/><path fill="#333" d="M270-311c169-5 225 193 169 351-53 150-181 230-347 275V209c83-35 173-54 180-160-8-63-78-66-110-107-22-28-39-60-39-112 0-89 62-139 147-141" id="bJ"/><g id="x"><use transform="matrix(0.015190972222222219,0,0,0.015190972222222219,0,0)" xlink:href="#bG"/><use transform="matrix(0.015190972222222219,0,0,0.015190972222222219,20.781249999999996,0)" xlink:href="#bA"/><use transform="matrix(0.015190972222222219,0,0,0.015190972222222219,42.276475694444436,0)" xlink:href="#bH"/><use transform="matrix(0.015190972222222219,0,0,0.015190972222222219,58.07508680555554,0)" xlink:href="#by"/><use transform="matrix(0.015190972222222219,0,0,0.015190972222222219,79.57031249999999,0)" xlink:href="#bE"/><use transform="matrix(0.015190972222222219,0,0,0.015190972222222219,98.20963541666664,0)" xlink:href="#bI"/><use transform="matrix(0.015190972222222219,0,0,0.015190972222222219,118.77821180555553,0)" xlink:href="#bJ"/></g><path fill="#333" d="M516-242c0 92 50 134 139 133V0H35v-109c104 5 170-31 170-133v-614c0-102-66-138-170-133v-109h620v109c-89-1-139 41-139 133v225c114 0 139-50 192-119 103-134 161-360 400-360 120 0 205 60 166 176-15 45-56 72-111 78-7-68-63-128-138-96-118 81-170 250-284 336 215 25 270 222 365 370 49 76 86 141 209 137V0c-189 2-360 2-455-92-94-92-145-254-222-364-28-40-56-64-122-62v276" id="bK"/><path fill="#333" d="M868-858c30-103-41-135-143-131v-109h461v109c-107-1-135 69-164 149C897-503 776-156 645 174c-67 169-165 287-379 309-58 6-136 10-211 9V373c279 4 391-150 453-363L139-891c-23-57-59-89-139-86v-121h584v109c-88-5-153 30-122 117 68 193 154 379 206 588 3 14 5 28 6 42 7-59 29-116 45-164 51-151 104-297 149-452" id="bL"/><path fill="#333" d="M1286-1124c351 0 505 215 508 571 3 368-162 573-514 573-336 0-491-199-508-526H516v264c0 96 54 136 150 133V0H35v-109c104 5 170-31 170-133v-614c0-102-66-138-170-133v-109h631v109c-96-3-150 37-150 133v233h258c19-325 180-501 512-501zm-94 158c-125 91-114 393-92 605 13 132 48 252 184 252s165-122 183-252c21-155 5-425-34-522-41-102-154-147-241-83" id="bM"/><path fill="#333" d="M868-864c0-88-53-126-139-125v-109h580v109c-90-1-140 41-140 133v739h363v-739c0-92-50-134-139-133v-109h610v109c-104-5-170 31-170 133v631c-2 106 87 120 195 116v539h-142c-12-199-12-430-203-430H35v-109c100 5 170-26 170-124v-623c0-102-66-138-170-133v-109h610v109c-89-1-139 41-139 133v739h362v-747" id="bN"/><path fill="#333" d="M512-1561c14 130 64 207 195 207s180-77 194-207h256c-17 239-181 320-450 320-270 0-432-79-451-320h256zm868 572c-104-5-170 31-170 133v614c0 102 66 138 170 133V0H760v-109c89 1 139-41 139-133v-440L516-262c-6 104 42 154 139 153V0H35v-109c104 5 170-31 170-133v-614c0-102-66-138-170-133v-109h620v109c-89-1-139 41-139 133v436l383-420c5-102-44-150-139-149v-109h620v109" id="bO"/><g id="y"><use transform="matrix(0.015190972222222219,0,0,0.015190972222222219,0,0)" xlink:href="#bK"/><use transform="matrix(0.015190972222222219,0,0,0.015190972222222219,19.672309027777775,0)" xlink:href="#bw"/><use transform="matrix(0.015190972222222219,0,0,0.015190972222222219,38.11414930555555,0)" xlink:href="#bx"/><use transform="matrix(0.015190972222222219,0,0,0.015190972222222219,57.558593749999986,0)" xlink:href="#bA"/><use transform="matrix(0.015190972222222219,0,0,0.015190972222222219,79.05381944444443,0)" xlink:href="#bD"/><use transform="matrix(0.015190972222222219,0,0,0.015190972222222219,99.12109374999997,0)" xlink:href="#bL"/><use transform="matrix(0.015190972222222219,0,0,0.015190972222222219,117.13758680555551,0)" xlink:href="#bM"/><use transform="matrix(0.015190972222222219,0,0,0.015190972222222219,145.84852430555551,0)" xlink:href="#bN"/><use transform="matrix(0.015190972222222219,0,0,0.015190972222222219,177.26345486111106,0)" xlink:href="#bA"/><use transform="matrix(0.015190972222222219,0,0,0.015190972222222219,198.7586805555555,0)" xlink:href="#bO"/></g><path fill="#333" d="M952-299c53 28 65 116 26 173C912-25 777 20 604 20 249 20 96-183 96-545c0-366 147-579 502-579 170 0 310 34 380 130 46 63 27 167-26 205-49 36-119 55-213 54-1-102-14-196-69-243-36-31-106-28-144 0-103 75-114 241-114 431 0 139 19 242 57 311s100 103 186 103c149 0 244-68 297-166" id="bP"/><path fill="#333" d="M256-109c108 6 171-33 170-137v-735c-74 5-167-16-200 35-29 46-35 127-44 198H41l12-350h1055l12 350H979c-18-105-5-234-125-233H737v735c-1 101 56 143 160 137V0H256v-109" id="bQ"/><g id="z"><use transform="matrix(0.015190972222222219,0,0,0.015190972222222219,0,0)" xlink:href="#bF"/><use transform="matrix(0.015190972222222219,0,0,0.015190972222222219,28.68055555555555,0)" xlink:href="#bz"/><use transform="matrix(0.015190972222222219,0,0,0.015190972222222219,46.43880208333333,0)" xlink:href="#bP"/><use transform="matrix(0.015190972222222219,0,0,0.015190972222222219,62.82986111111109,0)" xlink:href="#bQ"/></g><path fill="#333" d="M242-872c3-116-77-146-195-140v-86h596c143 0 249 23 315 68s99 111 99 196c-1 162-89 239-232 259v10c155 22 281 79 281 252C1106-84 924 0 682 0H47v-86c118 6 195-21 195-137v-649zm657 553c-2-155-108-197-268-197H434v422h209c166 3 258-59 256-225zm-39-494c0-135-87-190-227-191H434v390h199c143 0 227-59 227-199" id="bR"/><path fill="#333" d="M868-871c27-98-34-147-137-141v-86h426v86c-114-4-130 76-162 160C865-510 751-153 616 182c-65 163-156 280-360 302-50 6-113 8-178 8v-97c285-2 394-182 461-403L160-903c-28-65-56-114-152-109v-86h492v86c-114-14-152 77-113 174 88 217 187 419 248 662h6c62-238 163-461 227-695" id="bS"/><g id="A"><use transform="matrix(0.013020833333333332,0,0,0.013020833333333332,0,0)" xlink:href="#aY"/><use transform="matrix(0.013020833333333332,0,0,0.013020833333333332,20.989583333333332,0)" xlink:href="#bn"/><use transform="matrix(0.013020833333333332,0,0,0.013020833333333332,36.002604166666664,0)" xlink:href="#bo"/><use transform="matrix(0.013020833333333332,0,0,0.013020833333333332,49.127604166666664,0)" xlink:href="#bo"/><use transform="matrix(0.013020833333333332,0,0,0.013020833333333332,62.252604166666664,0)" xlink:href="#bp"/><use transform="matrix(0.013020833333333332,0,0,0.013020833333333332,80.59895833333333,0)" xlink:href="#bR"/><use transform="matrix(0.013020833333333332,0,0,0.013020833333333332,96.47135416666666,0)" xlink:href="#bS"/></g><path fill="#333" d="M786-645c-4-191-36-363-223-363-76 0-134 30-175 92s-66 152-73 271h471zm123 393c43 21 51 90 17 136C862-29 744 20 588 20c-331 0-471-225-475-561-4-348 134-577 454-577 327 0 443 231 426 583H311c7 242 67 426 305 426 140 0 234-60 293-143" id="bT"/><g id="B"><use transform="matrix(0.013020833333333332,0,0,0.013020833333333332,0,0)" xlink:href="#bs"/><use transform="matrix(0.013020833333333332,0,0,0.013020833333333332,14.583333333333332,0)" xlink:href="#aX"/><use transform="matrix(0.013020833333333332,0,0,0.013020833333333332,29.973958333333332,0)" xlink:href="#bt"/><use transform="matrix(0.013020833333333332,0,0,0.013020833333333332,47.04427083333333,0)" xlink:href="#bT"/><use transform="matrix(0.013020833333333332,0,0,0.013020833333333332,61.315104166666664,0)" xlink:href="#bl"/></g><path fill="#333" d="M272-1229c4-120-72-154-194-147v-86h987l10 358H969c-11-134-29-256-181-256H479v551c377-15 678 54 678 403C1157-117 953 0 653 0H78v-86c118 6 194-23 194-139v-1004zm664 834c0-231-117-322-348-318H479v615h139c211 2 318-86 318-297" id="bU"/><path fill="#333" d="M946-553c0-230-32-430-254-434-242-4-278 193-278 436s40 440 280 440c221 0 252-212 252-442zm-219-565c321 0 418 237 418 567 0 331-96 571-418 571-163 0-254-75-313-180h-8c7 140 10 280 8 428-2 108 66 142 174 138v86H37v-86c118 6 184-32 184-148V-872c3-116-76-146-194-140v-86h358l21 185h8c57-116 142-205 313-205" id="bV"/><g id="C"><use transform="matrix(0.013020833333333332,0,0,0.013020833333333332,0,0)" xlink:href="#bU"/><use transform="matrix(0.013020833333333332,0,0,0.013020833333333332,15.572916666666666,0)" xlink:href="#bS"/><use transform="matrix(0.013020833333333332,0,0,0.013020833333333332,30.377604166666664,0)" xlink:href="#bq"/><use transform="matrix(0.013020833333333332,0,0,0.013020833333333332,49.4921875,0)" xlink:href="#bT"/><use transform="matrix(0.013020833333333332,0,0,0.013020833333333332,63.76302083333333,0)" xlink:href="#bV"/></g></defs></g></svg>