<svg xmlns="http://www.w3.org/2000/svg" xmlns:xlink="http://www.w3.org/1999/xlink" xmlns:lucid="lucid" width="1740" height="967.61"><g transform="translate(-60 -60)" lucid:page-tab-id="0_0"><path d="M1085 395.53a6 6 0 0 1 6-6h328a6 6 0 0 1 6 6v136.75a6 6 0 0 1-6 6h-328a6 6 0 0 1-6-6z" stroke="#5e5e5e" stroke-width="3" fill="#fff"/><path d="M1060 421.6a6 6 0 0 1 6-6h328a6 6 0 0 1 6 6v136.76a6 6 0 0 1-6 6h-328a6 6 0 0 1-6-6z" stroke="#5e5e5e" stroke-width="3" fill="#fff"/><path d="M1017.5 388.28a30 30 0 0 1 30-30H1430a30 30 0 0 1 30 30V645.6a30 30 0 0 1-30 30h-382.5a30 30 0 0 1-30-30z" fill-opacity="0"/><path d="M1029.87 364l4-2.45 4.36-1.8 4.58-1.1h14.35m14.34-.03l28.67-.02m14.34-.02l28.7-.03m14.33 0l28.68-.04m14.35 0l28.68-.03m14.34 0l28.68-.04m14.35 0l28.68-.04m14.34-.02l28.68-.03m14.34 0l28.68-.04m14.34 0l14.34-.02 4.7.37 4.57 1.1 4.35 1.8m10.65 9.1l2.46 4 1.8 4.36 1.1 4.6.02 14.55m.02 14.55l.04 29.12m.03 14.55l.04 29.12m.02 14.54l.04 29.12m.02 14.56l.04 29.1m.02 14.57l.04 29.1m.02 14.56l.02 14.55-.37 4.7-1.1 4.6-1.8 4.33m-9.1 10.66l-4 2.44-4.36 1.8-4.58 1.1-14.35.02m-14.34 0l-28.67.04m-14.34 0l-28.7.04m-14.33 0l-28.68.04m-14.35.02l-28.68.02m-14.34.02l-28.68.02m-14.35.02l-28.68.03m-14.34.02l-28.68.03m-14.34 0l-28.68.04m-14.34 0h-14.34l-4.7-.35-4.57-1.1-4.35-1.8m-10.65-9.1l-2.46-4.02-1.8-4.34-1.1-4.6-.02-14.55m-.02-14.56l-.04-29.12m-.03-14.56l-.04-29.1m-.02-14.57l-.04-29.1m-.02-14.57l-.04-29.1m-.02-14.57l-.04-29.1m-.02-14.56l-.02-14.56.37-4.7 1.1-4.57 1.8-4.34" stroke="#635dff" stroke-width="3" fill="none"/><use xlink:href="#a" transform="matrix(1,0,0,1,1029.5,370.2812499999999) translate(86.95679012345681 246.81570616888888)"/><use xlink:href="#b" transform="matrix(1,0,0,1,1029.5,370.2812499999999) translate(40.37654320987659 284.1490395022222)"/><use xlink:href="#c" transform="matrix(1,0,0,1,1029.5,370.2812499999999) translate(270.08024691358025 284.1490395022222)"/><path d="M550 185.6a30 30 0 0 1 30-30h330a30 30 0 0 1 30 30v200a30 30 0 0 1-30 30H580a30 30 0 0 1-30-30z" fill-opacity="0"/><path d="M562.37 161.34l4-2.46 4.36-1.8 4.58-1.1h15.94m15.94-.03l31.88-.04m15.94 0l31.87-.04m15.94-.02l31.88-.03m15.94 0l31.88-.04m15.94-.02l31.87-.04m15.95-.02l31.87-.03m15.94-.02l15.94-.02 4.7.38 4.57 1.1 4.35 1.8m10.65 9.1l2.46 4 1.8 4.36 1.1 4.58.03 13.65m.02 13.64l.05 27.3m.02 13.65l.05 27.3m.03 13.64l.05 27.28m.02 13.65l.05 27.3m.03 13.64l.02 13.64-.37 4.7-1.1 4.6-1.8 4.33m-9.1 10.66l-4 2.44-4.36 1.8-4.58 1.1-15.94.02m-15.94.02l-31.88.04m-15.94 0l-31.87.05m-15.94.02l-31.88.02m-15.94.02l-31.88.03m-15.94.02l-31.87.03m-15.95 0l-31.87.05m-15.94.02H580l-4.7-.35-4.57-1.1-4.35-1.8m-10.65-9.1l-2.46-4.02-1.8-4.34-1.1-4.6-.03-13.64m-.02-13.64l-.05-27.3m-.02-13.64l-.05-27.3m-.03-13.64l-.05-27.3m-.02-13.64l-.05-27.3m-.03-13.64L550 185.6l.37-4.68 1.1-4.58 1.8-4.35" stroke="#008573" stroke-width="3" fill="none"/><use xlink:href="#d" transform="matrix(1,0,0,1,562,167.61458333333326) translate(6.2716049382716506 24.888888888888882)"/><use xlink:href="#e" transform="matrix(1,0,0,1,562,167.61458333333326) translate(108.07407407407408 24.888888888888882)"/><use xlink:href="#f" transform="matrix(1,0,0,1,562,167.61458333333326) translate(275.9012345679012 24.888888888888882)"/><path d="M508.75 568.28a30 30 0 0 1 30-30h382.5a30 30 0 0 1 30 30v260a30 30 0 0 1-30 30h-382.5a30 30 0 0 1-30-30z" fill-opacity="0"/><path d="M521.12 544l4-2.45 4.36-1.8 4.58-1.1h14.34m14.34-.03l28.68-.02m14.34-.02l28.68-.03m14.34 0l28.68-.04m14.34 0l28.68-.03m14.34 0l28.68-.04m14.35 0l28.68-.04m14.34-.02l28.68-.03m14.34 0l28.67-.04m14.34 0l14.35-.02 4.7.37 4.57 1.1 4.35 1.8m10.65 9.1l2.46 4 1.8 4.36 1.1 4.6.02 14.7m.02 14.7l.04 29.4m.02 14.7l.04 29.42m.02 14.7l.05 29.42m0 14.7l.05 29.42m.02 14.7l.04 29.4m.03 14.72l.02 14.7-.37 4.7-1.1 4.57-1.8 4.35m-9.1 10.65l-4 2.46-4.36 1.8-4.58 1.1-14.34.03m-14.34 0l-28.68.04m-14.34 0l-28.68.04m-14.34.02l-28.68.03m-14.34 0l-28.68.04m-14.34 0l-28.68.03m-14.35 0l-28.68.04m-14.34.02h-28.68m-14.34.03l-28.67.02m-14.34.02h-14.35l-4.7-.36-4.57-1.1-4.35-1.8m-10.65-9.1l-2.46-4-1.8-4.35-1.1-4.58-.02-14.7m-.02-14.7l-.04-29.42m-.02-14.7l-.04-29.4m-.02-14.72l-.05-29.4m0-14.7l-.05-29.42m-.02-14.7l-.04-29.4m-.03-14.7l-.02-14.72.37-4.7 1.1-4.57 1.8-4.34" stroke="#1071e5" stroke-width="3" fill="none"/><use xlink:href="#g" transform="matrix(1,0,0,1,520.75,550.28125) translate(86.95679012345681 250.8112440888889)"/><use xlink:href="#h" transform="matrix(1,0,0,1,520.75,550.28125) translate(56.79629629629633 288.14457742222226)"/><use xlink:href="#i" transform="matrix(1,0,0,1,520.75,550.28125) translate(253.66049382716048 288.14457742222226)"/><path d="M80 308.28a30 30 0 0 1 30-30h300a30 30 0 0 1 30 30v200a30 30 0 0 1-30 30H110a30 30 0 0 1-30-30z" fill-opacity="0"/><path d="M92.37 284l4-2.45 4.36-1.8 4.58-1.1 14.52-.02m14.5 0l29.02-.05m14.5-.02l29.03-.03m14.5-.02l29.03-.03m14.5 0l29.03-.05m14.5-.02l29.02-.03m14.5-.02l29.03-.03m14.5-.02l14.52-.02 4.7.37 4.57 1.1 4.35 1.8m10.65 9.1l2.46 4 1.8 4.36 1.1 4.6.03 13.63m.02 13.65l.05 27.3m.02 13.64l.05 27.3m.03 13.64l.05 27.3m.02 13.64l.05 27.3m.03 13.64l.02 13.64-.37 4.7-1.1 4.57-1.8 4.35m-9.1 10.65l-4 2.46-4.36 1.8-4.58 1.1-14.52.03m-14.5.02l-29.02.03m-14.5.02l-29.03.03m-14.5.02l-29.03.04m-14.5 0l-29.03.04m-14.5.02l-29.02.03m-14.5 0l-29.03.05m-14.5 0l-14.52.03-4.7-.37-4.57-1.1-4.35-1.8m-10.65-9.1l-2.46-4-1.8-4.35-1.1-4.58-.03-13.64m-.02-13.65l-.05-27.3m-.02-13.64l-.05-27.3m-.03-13.64l-.05-27.3m-.02-13.63l-.05-27.3m-.03-13.64L80 308.28l.37-4.7 1.1-4.57 1.8-4.34" stroke="#cc4e00" stroke-width="3" fill="none"/><use xlink:href="#j" transform="matrix(1,0,0,1,92,290.28125) translate(42.69135802469141 226.7659320888889)"/><path d="M140 344.28a6 6 0 0 1 6-6h228a6 6 0 0 1 6 6v108a6 6 0 0 1-6 6H146a6 6 0 0 1-6-6z" stroke="#5e5e5e" stroke-width="4" fill="#fff"/><use xlink:href="#k" transform="matrix(1,0,0,1,140,338.28125) translate(34.90740740740745 45.41666666666666)"/><use xlink:href="#l" transform="matrix(1,0,0,1,140,338.28125) translate(136.57407407407408 45.41666666666666)"/><use xlink:href="#m" transform="matrix(1,0,0,1,140,338.28125) translate(57.129629629629655 85.41666666666664)"/><path d="M595 226a6 6 0 0 1 6-6h258a6 6 0 0 1 6 6v126.28a6 6 0 0 1-6 6H601a6 6 0 0 1-6-6z" stroke="#5e5e5e" stroke-width="4" fill="#fff"/><use xlink:href="#n" transform="matrix(1,0,0,1,595,220) translate(12.242603550295883 38.025332840236686)"/><use xlink:href="#o" transform="matrix(1,0,0,1,595,220) translate(43.39842209072981 38.025332840236686)"/><use xlink:href="#p" transform="matrix(1,0,0,1,595,220) translate(190.41222879684418 38.025332840236686)"/><use xlink:href="#q" transform="matrix(1,0,0,1,595,220) translate(61.536489151873766 75.51645710059171)"/><use xlink:href="#r" transform="matrix(1,0,0,1,595,220) translate(11.938856015779095 113.00758136094674)"/><use xlink:href="#s" transform="matrix(1,0,0,1,595,220) translate(167.89151873767258 113.00758136094674)"/><path d="M560 618.57a6 6 0 0 1 6-6h328a6 6 0 0 1 6 6v136.75a6 6 0 0 1-6 6H566a6 6 0 0 1-6-6z" stroke="#5e5e5e" stroke-width="3" fill="#fff"/><use xlink:href="#t" transform="matrix(1,0,0,1,560,612.5729166666667) translate(47.759259259259295 43.513888888888886)"/><use xlink:href="#u" transform="matrix(1,0,0,1,560,612.5729166666667) translate(78.78395061728398 43.513888888888886)"/><use xlink:href="#v" transform="matrix(1,0,0,1,560,612.5729166666667) translate(225.179012345679 43.513888888888886)"/><use xlink:href="#w" transform="matrix(1,0,0,1,560,612.5729166666667) translate(36.22222222222223 80.84722222222221)"/><use xlink:href="#x" transform="matrix(1,0,0,1,560,612.5729166666667) translate(269.7283950617284 80.84722222222221)"/><use xlink:href="#y" transform="matrix(1,0,0,1,560,612.5729166666667) translate(120.26543209876544 118.18055555555554)"/><path d="M730 362.24v226.13" stroke="#5e5e5e" stroke-width="4" fill="none"/><path d="M732 362.3h-4v-2.06h4z" stroke="#5e5e5e" stroke-width=".05" fill="#5e5e5e"/><path d="M730 604.64l-4.64-14.27h9.28z" stroke="#5e5e5e" stroke-width="4" fill="#5e5e5e"/><path d="M260 190.6V313.6" stroke="#5e5e5e" stroke-width="4" fill="none"/><path d="M262 190.66h-4v-2.05h4z" stroke="#5e5e5e" stroke-width=".05" fill="#5e5e5e"/><path d="M260 329.85l-4.64-14.27h9.28z" stroke="#5e5e5e" stroke-width="4" fill="#5e5e5e"/><path d="M140 86a6 6 0 0 1 6-6h228a6 6 0 0 1 6 6v96.65a6 6 0 0 1-6 6H146a6 6 0 0 1-6-6z" stroke="#000" stroke-opacity="0" stroke-width="3" fill="#fff" fill-opacity="0"/><use xlink:href="#z" transform="matrix(1,0,0,1,140,80) translate(54.19135802469137 41.920138888888886)"/><use xlink:href="#A" transform="matrix(1,0,0,1,140,80) translate(9.51234567901237 79.25347222222221)"/><path d="M383.96 398.28h97.54a6 6 0 0 0 6-6v-97.14a6 6 0 0 1 6-6h76.8" stroke="#5e5e5e" stroke-width="4" fill="none"/><path d="M384 400.28h-2.04v-4H384z" stroke="#5e5e5e" stroke-width=".05" fill="#5e5e5e"/><path d="M586.56 289.14l-14.26 4.64v-9.27z" stroke="#5e5e5e" stroke-width="4" fill="#5e5e5e"/><path d="M868.96 289.14h107.77a6 6 0 0 0 6-6v-68.86a6 6 0 0 1 6-6h87.03" stroke="#5e5e5e" stroke-width="4" fill="none"/><path d="M869 291.14h-2.04v-4H869z" stroke="#5e5e5e" stroke-width=".05" fill="#5e5e5e"/><path d="M1092.03 208.28l-14.27 4.64v-9.27z" stroke="#5e5e5e" stroke-width="4" fill="#5e5e5e"/><path d="M1040 444.28a6 6 0 0 1 6-6h328a6 6 0 0 1 6 6v136.75a6 6 0 0 1-6 6h-328a6 6 0 0 1-6-6z" stroke="#5e5e5e" stroke-width="3" fill="#fff"/><use xlink:href="#B" transform="matrix(1,0,0,1,1040,438.28125000000006) translate(47.759259259259295 43.513888888888886)"/><use xlink:href="#C" transform="matrix(1,0,0,1,1040,438.28125000000006) translate(78.78395061728398 43.513888888888886)"/><use xlink:href="#D" transform="matrix(1,0,0,1,1040,438.28125000000006) translate(225.179012345679 43.513888888888886)"/><use xlink:href="#E" transform="matrix(1,0,0,1,1040,438.28125000000006) translate(36.22222222222223 80.84722222222221)"/><use xlink:href="#F" transform="matrix(1,0,0,1,1040,438.28125000000006) translate(269.7283950617284 80.84722222222221)"/><use xlink:href="#G" transform="matrix(1,0,0,1,1040,438.28125000000006) translate(67.72222222222224 118.18055555555554)"/><use xlink:href="#H" transform="matrix(1,0,0,1,1040,438.28125000000006) translate(194.84567901234567 118.18055555555554)"/><path d="M1230 276.12v115.3" stroke="#5e5e5e" stroke-width="4" fill="none"/><path d="M1232 276.17h-4v-1.37l4-1.36z" stroke="#5e5e5e" stroke-width=".05" fill="#5e5e5e"/><path d="M1230 407.68l-4.64-14.27h9.28z" stroke="#5e5e5e" stroke-width="4" fill="#5e5e5e"/><path d="M1100 144.28a6 6 0 0 1 6-6h222a6 6 0 0 1 6 6v113c-39.08-19.87-63.4-19.87-78.16-19.87-23.4 0-54.52 19.88-77.92 19.88-14.5 0-39.08 0-77.92-19.87z" stroke="#5e5e5e" stroke-width="3" fill="#fff"/><path d="M1113 154.78a6 6 0 0 1 6-6h222a6 6 0 0 1 6 6v113c-39.08-19.87-63.4-19.87-78.16-19.87-23.4 0-54.52 19.88-77.92 19.88-14.5 0-39.08 0-77.92-19.87z" stroke="#5e5e5e" stroke-width="3" fill="#fff"/><path d="M1126 165.28a6 6 0 0 1 6-6h222a6 6 0 0 1 6 6v113c-39.08-19.87-63.4-19.87-78.16-19.87-23.4 0-54.52 19.88-77.92 19.88-14.5 0-39.08 0-77.92-19.87z" stroke="#5e5e5e" stroke-width="3" fill="#fff"/><g><use xlink:href="#I" transform="matrix(1,0,0,1,1131,164.28125) translate(10.932098765432116 50.201388888888886)"/><use xlink:href="#J" transform="matrix(1,0,0,1,1131,164.28125) translate(114.6358024691358 50.201388888888886)"/></g><path d="M903.46 686.95h200.27a6 6 0 0 1 6 6v234a6 6 0 0 0 6 6h179.53" stroke="#5e5e5e" stroke-width="4" fill="none"/><path d="M903.5 688.95h-2.04v-4h2.05z" stroke="#5e5e5e" stroke-width=".05" fill="#5e5e5e"/><path d="M1311.53 932.95l-14.27 4.63v-9.27z" stroke="#5e5e5e" stroke-width="4" fill="#5e5e5e"/><path d="M1484 932.95h33.3" stroke="#5e5e5e" stroke-width="4" fill="none"/><path d="M1484.05 934.95H1482v-4h2.05z" stroke="#5e5e5e" stroke-width=".05" fill="#5e5e5e"/><path d="M1533.56 932.95l-14.26 4.63v-9.27z" stroke="#5e5e5e" stroke-width="4" fill="#5e5e5e"/><path d="M1210 590.5v160.53a6 6 0 0 0 6 6h79.26" stroke="#5e5e5e" stroke-width="4" fill="none"/><path d="M1212 590.55h-4v-2.06h4z" stroke="#5e5e5e" stroke-width=".05" fill="#5e5e5e"/><path d="M1311.53 757.03l-14.27 4.63v-9.27z" stroke="#5e5e5e" stroke-width="4" fill="#5e5e5e"/><path d="M1540 683.33a6 6 0 0 1 6-6h228a6 6 0 0 1 6 6v137.34a6 6 0 0 1-6 6h-228a6 6 0 0 1-6-6z" stroke="#000" stroke-opacity="0" stroke-width="3" fill="#fff" fill-opacity="0"/><g><use xlink:href="#K" transform="matrix(1,0,0,1,1540,677.3335101921866) translate(60.63462962962964 24.888888888888886)"/><use xlink:href="#L" transform="matrix(1,0,0,1,1540,677.3335101921866) translate(20.44444444444447 62.222222222222214)"/><use xlink:href="#M" transform="matrix(1,0,0,1,1540,677.3335101921866) translate(8.561728395061763 99.55555555555554)"/><use xlink:href="#N" transform="matrix(1,0,0,1,1540,677.3335101921866) translate(84.52969135802469 136.88888888888886)"/></g><path d="M1320 692c26.56 19.92 43.36 19.92 53.28 19.92 16 0 37.28-19.92 53.28-19.92 10.08 0 26.72 0 53.44 19.92V812c-26.72-20.04-43.36-20.04-53.44-20.04-16 0-37.28 20.04-53.28 20.04-9.92 0-26.72 0-53.28-20.04z" stroke="#5e5e5e" stroke-width="4" fill="#fff"/><g><use xlink:href="#O" transform="matrix(1,0,0,1,1325,697) translate(17.09876543209878 62.701388888888886)"/></g><path d="M1540 864.28a6 6 0 0 1 6-6h228a6 6 0 0 1 6 6v137.33a6 6 0 0 1-6 6h-228a6 6 0 0 1-6-6z" stroke="#000" stroke-opacity="0" stroke-width="3" fill="#fff" fill-opacity="0"/><g><use xlink:href="#K" transform="matrix(1,0,0,1,1540,858.2812499999999) translate(60.63462962962964 24.888888888888886)"/><use xlink:href="#L" transform="matrix(1,0,0,1,1540,858.2812499999999) translate(20.44444444444447 62.222222222222214)"/><use xlink:href="#P" transform="matrix(1,0,0,1,1540,858.2812499999999) translate(24.98148148148151 99.55555555555554)"/><use xlink:href="#N" transform="matrix(1,0,0,1,1540,858.2812499999999) translate(84.52969135802469 136.88888888888886)"/></g><path d="M1484 752h33.3" stroke="#5e5e5e" stroke-width="4" fill="none"/><path d="M1484.05 754H1482v-4h2.05z" stroke="#5e5e5e" stroke-width=".05" fill="#5e5e5e"/><path d="M1533.56 752l-14.26 4.64v-9.28z" stroke="#5e5e5e" stroke-width="4" fill="#5e5e5e"/><path d="M1320 872.95c26.56 19.92 43.36 19.92 53.28 19.92 16 0 37.28-19.92 53.28-19.92 10.08 0 26.72 0 53.44 19.92v100.08c-26.72-20.04-43.36-20.04-53.44-20.04-16 0-37.28 20.05-53.28 20.05-9.92 0-26.72 0-53.28-20.04z" stroke="#5e5e5e" stroke-width="4" fill="#fff"/><g><use xlink:href="#O" transform="matrix(1,0,0,1,1325,877.9479166666665) translate(17.09876543209878 62.701388888888886)"/></g><defs><path fill="#635dff" d="M98-112c-6 3-14 5-22 6V0H24v-248h52v106c24-6 35-30 47-49l36-57h53l-77 111L220 0h-56" id="Q"/><path fill="#635dff" d="M154 0v-157H99C89-107 89-44 65-9 54 6 26 5 4 1v-33c46 5 36-55 46-98 6-25 3-25 8-60h146V0h-50" id="R"/><path fill="#635dff" d="M133-34C117-15 103 5 69 4 32 3 11-16 11-54c-1-60 55-63 116-61 1-26-3-47-28-47-18 1-26 9-28 27l-52-2c7-38 36-58 82-57s74 22 75 68l1 82c-1 14 12 18 25 15v27c-30 8-71 5-69-32zm-48 3c29 0 43-24 42-57-32 0-66-3-65 30 0 17 8 27 23 27" id="S"/><path fill="#635dff" d="M190-63c-7 42-38 67-86 67-59 0-84-38-90-98-12-110 154-137 174-36l-49 2c-2-19-15-32-35-32-30 0-35 28-38 64-6 74 65 87 74 30" id="T"/><path fill="#635dff" d="M71-190L68-54l78-136h50V0h-45l3-136L78 0H25v-190h46" id="U"/><path fill="#635dff" d="M236-194c50 0 64 45 64 98-1 54-16 100-67 100-28 0-43-15-54-34l1 105h-46V-31C125-8 108 4 78 4 29 4 14-43 14-95c0-54 17-97 68-99 29-1 42 16 53 34l-1-101h46v102c10-23 27-35 56-35zM100-30c49 0 50-130 0-130-31 0-33 31-34 65 0 43 12 65 34 65zm115 0c48-1 47-129 0-130-50 3-49 127 0 130" id="V"/><path fill="#635dff" d="M25-190h50v81c22-2 24-18 33-36l22-45h49c-19 30-32 64-55 90L180 0h-50L89-81c-3 2-9 2-14 2V0H25v-190" id="W"/><path fill="#635dff" d="M25 0v-190h50v157h68v-157h49v157h26V72h-43V0H25" id="X"/><path fill="#635dff" d="M15-136c0-71 99-51 170-54V0h-50v-76h-33L54 0H0l56-83c-25-6-41-23-41-53zm51 3c0 32 38 26 70 26v-52c-31 1-70-6-70 26" id="Y"/><g id="a"><use transform="matrix(0.08641975308641973,0,0,0.08641975308641973,0,0)" xlink:href="#Q"/><use transform="matrix(0.08641975308641973,0,0,0.08641975308641973,18.92592592592592,0)" xlink:href="#R"/><use transform="matrix(0.08641975308641973,0,0,0.08641975308641973,38.62962962962962,0)" xlink:href="#S"/><use transform="matrix(0.08641975308641973,0,0,0.08641975308641973,55.91358024691357,0)" xlink:href="#T"/><use transform="matrix(0.08641975308641973,0,0,0.08641975308641973,73.19753086419752,0)" xlink:href="#T"/><use transform="matrix(0.08641975308641973,0,0,0.08641975308641973,90.48148148148147,0)" xlink:href="#U"/><use transform="matrix(0.08641975308641973,0,0,0.08641975308641973,109.58024691358023,0)" xlink:href="#V"/><use transform="matrix(0.08641975308641973,0,0,0.08641975308641973,136.80246913580245,0)" xlink:href="#U"/><use transform="matrix(0.08641975308641973,0,0,0.08641975308641973,155.9012345679012,0)" xlink:href="#W"/><use transform="matrix(0.08641975308641973,0,0,0.08641975308641973,171.45679012345676,0)" xlink:href="#S"/><use transform="matrix(0.08641975308641973,0,0,0.08641975308641973,188.7407407407407,0)" xlink:href="#X"/><use transform="matrix(0.08641975308641973,0,0,0.08641975308641973,207.83950617283946,0)" xlink:href="#U"/><use transform="matrix(0.08641975308641973,0,0,0.08641975308641973,226.93827160493822,0)" xlink:href="#Y"/></g><path fill="#635dff" d="M147-157h-42c-8 43-13 90-29 124h71v-124zM24-33c25-41 30-96 40-157h132v157h26V72h-43V0H46v72H2V-33h22" id="Z"/><path fill="#635dff" d="M75-190v75h68v-75h49V0h-49v-81H75V0H25v-190h50" id="aa"/><path fill="#635dff" d="M153 0h-38L66-156 68 0H25v-190h66c14 50 33 95 43 149 9-54 29-100 43-149h64V0h-43l3-156" id="ab"/><path fill="#635dff" d="M135-73C95-53 15-45 15-113v-77h49c4 41-18 104 39 95l32-8v-87h49V0h-49v-73" id="ac"/><path fill="#635dff" d="M185-48c-13 30-37 53-82 52C43 2 14-33 14-96s30-98 90-98c62 0 83 45 84 108H66c0 31 8 55 39 56 18 0 30-7 34-22zm-45-69c5-46-57-63-70-21-2 6-4 13-4 21h74" id="ad"/><path fill="#635dff" d="M144 0l-44-69L55 0H2l70-98-66-92h53l41 62 40-62h54l-67 91 71 99h-54" id="ae"/><g id="b"><use transform="matrix(0.08641975308641973,0,0,0.08641975308641973,0,0)" xlink:href="#Z"/><use transform="matrix(0.08641975308641973,0,0,0.08641975308641973,19.7037037037037,0)" xlink:href="#U"/><use transform="matrix(0.08641975308641973,0,0,0.08641975308641973,38.80246913580246,0)" xlink:href="#aa"/><use transform="matrix(0.08641975308641973,0,0,0.08641975308641973,57.55555555555554,0)" xlink:href="#S"/><use transform="matrix(0.08641975308641973,0,0,0.08641975308641973,74.83950617283949,0)" xlink:href="#ab"/><use transform="matrix(0.08641975308641973,0,0,0.08641975308641973,97.82716049382714,0)" xlink:href="#U"/><use transform="matrix(0.08641975308641973,0,0,0.08641975308641973,116.9259259259259,0)" xlink:href="#ac"/><use transform="matrix(0.08641975308641973,0,0,0.08641975308641973,134.98765432098762,0)" xlink:href="#ad"/><use transform="matrix(0.08641975308641973,0,0,0.08641975308641973,151.83950617283946,0)" xlink:href="#T"/><use transform="matrix(0.08641975308641973,0,0,0.08641975308641973,169.1234567901234,0)" xlink:href="#W"/><use transform="matrix(0.08641975308641973,0,0,0.08641975308641973,184.67901234567898,0)" xlink:href="#U"/><use transform="matrix(0.08641975308641973,0,0,0.08641975308641973,203.77777777777774,0)" xlink:href="#ae"/><path fill="#635dff" d="M-1.56 1.67H222.6v3.27H-1.55z"/></g><path fill="#635dff" d="M105-80l-17-2L49 0H-3l56-100c-21-25-36-61-54-90h48c17 27 27 62 51 82 2 1 5 1 7 1v-83h45v83c34-10 38-57 58-83h48c-18 30-33 63-54 90L258 0h-52l-39-82-17 2V0h-45v-80" id="af"/><path fill="#635dff" d="M10-190h156v33h-53V0H63v-157H10v-33" id="ag"/><path fill="#635dff" d="M110-194c64 0 96 36 96 99 0 64-35 99-97 99-61 0-95-36-95-99 0-62 34-99 96-99zm-1 164c35 0 45-28 45-65 0-40-10-65-43-65-34 0-45 26-45 65 0 36 10 65 43 65" id="ah"/><path fill="#635dff" d="M207-55C206 19 99-3 25 0v-190c69 5 172-21 177 47 2 30-24 34-43 44 27 3 48 13 48 44zm-50-2c0-36-48-24-82-26v52c34-2 82 10 82-26zm-7-80c0-31-45-20-75-22v45c31-3 75 10 75-23" id="ai"/><g id="c"><use transform="matrix(0.08641975308641973,0,0,0.08641975308641973,0,0)" xlink:href="#af"/><use transform="matrix(0.08641975308641973,0,0,0.08641975308641973,21.604938271604933,0)" xlink:href="#ad"/><use transform="matrix(0.08641975308641973,0,0,0.08641975308641973,38.456790123456784,0)" xlink:href="#T"/><use transform="matrix(0.08641975308641973,0,0,0.08641975308641973,55.740740740740726,0)" xlink:href="#ag"/><use transform="matrix(0.08641975308641973,0,0,0.08641975308641973,70.5185185185185,0)" xlink:href="#ah"/><use transform="matrix(0.08641975308641973,0,0,0.08641975308641973,89.44444444444443,0)" xlink:href="#ai"/></g><path fill="#008573" d="M185 0v-205H76V0H24v-248h211V0h-50" id="aj"/><path fill="#008573" d="M110-194c64 0 96 36 96 99 0 64-35 99-97 99-61 0-95-36-95-99 0-62 34-99 96-99zm-1 164c35 0 45-28 45-65 0-40-10-65-43-65-34 0-45 26-45 65 0 36 10 65 43 65" id="ak"/><path fill="#008573" d="M71-190L68-54l78-136h50V0h-45l3-136L78 0H25v-190h46" id="al"/><path fill="#008573" d="M190-63c-7 42-38 67-86 67-59 0-84-38-90-98-12-110 154-137 174-36l-49 2c-2-19-15-32-35-32-30 0-35 28-38 64-6 74 65 87 74 30" id="am"/><path fill="#008573" d="M25-190h50v81c22-2 24-18 33-36l22-45h49c-19 30-32 64-55 90L180 0h-50L89-81c-3 2-9 2-14 2V0H25v-190" id="an"/><g id="d"><use transform="matrix(0.08641975308641972,0,0,0.08641975308641972,0,0)" xlink:href="#aj"/><use transform="matrix(0.08641975308641972,0,0,0.08641975308641972,22.296296296296287,0)" xlink:href="#ak"/><use transform="matrix(0.08641975308641972,0,0,0.08641975308641972,41.22222222222221,0)" xlink:href="#al"/><use transform="matrix(0.08641975308641972,0,0,0.08641975308641972,60.320987654320966,0)" xlink:href="#am"/><use transform="matrix(0.08641975308641972,0,0,0.08641975308641972,77.60493827160491,0)" xlink:href="#an"/></g><path fill="#008573" d="M154 0v-157H99C89-107 89-44 65-9 54 6 26 5 4 1v-33c46 5 36-55 46-98 6-25 3-25 8-60h146V0h-50" id="ao"/><path fill="#008573" d="M201-194c63 0 92 36 92 99 1 63-33 99-93 99-55 0-85-33-91-85H75V0H25v-190h50v75h35c7-49 36-79 91-79zm-1 164c32 0 42-26 42-65s-9-65-40-65c-32 0-42 27-42 65 1 35 8 65 40 65" id="ap"/><path fill="#008573" d="M135-73C95-53 15-45 15-113v-77h49c4 41-18 104 39 95l32-8v-87h49V0h-49v-73" id="aq"/><path fill="#008573" d="M185-48c-13 30-37 53-82 52C43 2 14-33 14-96s30-98 90-98c62 0 83 45 84 108H66c0 31 8 55 39 56 18 0 30-7 34-22zm-45-69c5-46-57-63-70-21-2 6-4 13-4 21h74" id="ar"/><path fill="#008573" d="M207-55C206 19 99-3 25 0v-190c69 5 172-21 177 47 2 30-24 34-43 44 27 3 48 13 48 44zm-50-2c0-36-48-24-82-26v52c34-2 82 10 82-26zm-7-80c0-31-45-20-75-22v45c31-3 75 10 75-23" id="as"/><path fill="#008573" d="M206-58C204 19 101-3 25 0v-190h50v76c63-1 132-4 131 56zm-50 0c0-33-48-23-81-25v52c34-2 81 8 81-27zm77 58v-190h49V0h-49" id="at"/><path fill="#008573" d="M144 0l-44-69L55 0H2l70-98-66-92h53l41 62 40-62h54l-67 91 71 99h-54" id="au"/><g id="e"><use transform="matrix(0.08641975308641972,0,0,0.08641975308641972,0,0)" xlink:href="#an"/><use transform="matrix(0.08641975308641972,0,0,0.08641975308641972,15.901234567901229,0)" xlink:href="#ao"/><use transform="matrix(0.08641975308641972,0,0,0.08641975308641972,35.60493827160492,0)" xlink:href="#ap"/><use transform="matrix(0.08641975308641972,0,0,0.08641975308641972,60.9259259259259,0)" xlink:href="#aq"/><use transform="matrix(0.08641975308641972,0,0,0.08641975308641972,78.98765432098762,0)" xlink:href="#ar"/><use transform="matrix(0.08641975308641972,0,0,0.08641975308641972,96.27160493827157,0)" xlink:href="#as"/><use transform="matrix(0.08641975308641972,0,0,0.08641975308641972,115.37037037037032,0)" xlink:href="#at"/><use transform="matrix(0.08641975308641972,0,0,0.08641975308641972,141.90123456790118,0)" xlink:href="#au"/></g><path fill="#008573" d="M10-190h156v33h-53V0H63v-157H10v-33" id="av"/><g id="f"><use transform="matrix(0.08641975308641972,0,0,0.08641975308641972,0,0)" xlink:href="#av"/><use transform="matrix(0.08641975308641972,0,0,0.08641975308641972,14.777777777777771,0)" xlink:href="#ak"/><use transform="matrix(0.08641975308641972,0,0,0.08641975308641972,32.92592592592592,0)" xlink:href="#aq"/><use transform="matrix(0.08641975308641972,0,0,0.08641975308641972,50.98765432098764,0)" xlink:href="#ar"/><use transform="matrix(0.08641975308641972,0,0,0.08641975308641972,68.27160493827158,0)" xlink:href="#an"/></g><path fill="#1071e5" d="M98-112c-6 3-14 5-22 6V0H24v-248h52v106c24-6 35-30 47-49l36-57h53l-77 111L220 0h-56" id="aw"/><path fill="#1071e5" d="M154 0v-157H99C89-107 89-44 65-9 54 6 26 5 4 1v-33c46 5 36-55 46-98 6-25 3-25 8-60h146V0h-50" id="ax"/><path fill="#1071e5" d="M133-34C117-15 103 5 69 4 32 3 11-16 11-54c-1-60 55-63 116-61 1-26-3-47-28-47-18 1-26 9-28 27l-52-2c7-38 36-58 82-57s74 22 75 68l1 82c-1 14 12 18 25 15v27c-30 8-71 5-69-32zm-48 3c29 0 43-24 42-57-32 0-66-3-65 30 0 17 8 27 23 27" id="ay"/><path fill="#1071e5" d="M190-63c-7 42-38 67-86 67-59 0-84-38-90-98-12-110 154-137 174-36l-49 2c-2-19-15-32-35-32-30 0-35 28-38 64-6 74 65 87 74 30" id="az"/><path fill="#1071e5" d="M71-190L68-54l78-136h50V0h-45l3-136L78 0H25v-190h46" id="aA"/><path fill="#1071e5" d="M236-194c50 0 64 45 64 98-1 54-16 100-67 100-28 0-43-15-54-34l1 105h-46V-31C125-8 108 4 78 4 29 4 14-43 14-95c0-54 17-97 68-99 29-1 42 16 53 34l-1-101h46v102c10-23 27-35 56-35zM100-30c49 0 50-130 0-130-31 0-33 31-34 65 0 43 12 65 34 65zm115 0c48-1 47-129 0-130-50 3-49 127 0 130" id="aB"/><path fill="#1071e5" d="M25-190h50v81c22-2 24-18 33-36l22-45h49c-19 30-32 64-55 90L180 0h-50L89-81c-3 2-9 2-14 2V0H25v-190" id="aC"/><path fill="#1071e5" d="M25 0v-190h50v157h68v-157h49v157h26V72h-43V0H25" id="aD"/><path fill="#1071e5" d="M15-136c0-71 99-51 170-54V0h-50v-76h-33L54 0H0l56-83c-25-6-41-23-41-53zm51 3c0 32 38 26 70 26v-52c-31 1-70-6-70 26" id="aE"/><g id="g"><use transform="matrix(0.08641975308641973,0,0,0.08641975308641973,0,0)" xlink:href="#aw"/><use transform="matrix(0.08641975308641973,0,0,0.08641975308641973,18.92592592592592,0)" xlink:href="#ax"/><use transform="matrix(0.08641975308641973,0,0,0.08641975308641973,38.62962962962962,0)" xlink:href="#ay"/><use transform="matrix(0.08641975308641973,0,0,0.08641975308641973,55.91358024691357,0)" xlink:href="#az"/><use transform="matrix(0.08641975308641973,0,0,0.08641975308641973,73.19753086419752,0)" xlink:href="#az"/><use transform="matrix(0.08641975308641973,0,0,0.08641975308641973,90.48148148148147,0)" xlink:href="#aA"/><use transform="matrix(0.08641975308641973,0,0,0.08641975308641973,109.58024691358023,0)" xlink:href="#aB"/><use transform="matrix(0.08641975308641973,0,0,0.08641975308641973,136.80246913580245,0)" xlink:href="#aA"/><use transform="matrix(0.08641975308641973,0,0,0.08641975308641973,155.9012345679012,0)" xlink:href="#aC"/><use transform="matrix(0.08641975308641973,0,0,0.08641975308641973,171.45679012345676,0)" xlink:href="#ay"/><use transform="matrix(0.08641975308641973,0,0,0.08641975308641973,188.7407407407407,0)" xlink:href="#aD"/><use transform="matrix(0.08641975308641973,0,0,0.08641975308641973,207.83950617283946,0)" xlink:href="#aA"/><use transform="matrix(0.08641975308641973,0,0,0.08641975308641973,226.93827160493822,0)" xlink:href="#aE"/></g><path fill="#1071e5" d="M10-190h156v33h-53V0H63v-157H10v-33" id="aF"/><path fill="#1071e5" d="M135-73C95-53 15-45 15-113v-77h49c4 41-18 104 39 95l32-8v-87h49V0h-49v-73" id="aG"/><path fill="#1071e5" d="M185-48c-13 30-37 53-82 52C43 2 14-33 14-96s30-98 90-98c62 0 83 45 84 108H66c0 31 8 55 39 56 18 0 30-7 34-22zm-45-69c5-46-57-63-70-21-2 6-4 13-4 21h74" id="aH"/><path fill="#1071e5" d="M144 0l-44-69L55 0H2l70-98-66-92h53l41 62 40-62h54l-67 91 71 99h-54" id="aI"/><g id="h"><use transform="matrix(0.08641975308641973,0,0,0.08641975308641973,0,0)" xlink:href="#az"/><use transform="matrix(0.08641975308641973,0,0,0.08641975308641973,17.283950617283946,0)" xlink:href="#aF"/><use transform="matrix(0.08641975308641973,0,0,0.08641975308641973,32.49382716049382,0)" xlink:href="#ay"/><use transform="matrix(0.08641975308641973,0,0,0.08641975308641973,49.777777777777764,0)" xlink:href="#aF"/><use transform="matrix(0.08641975308641973,0,0,0.08641975308641973,64.98765432098764,0)" xlink:href="#aA"/><use transform="matrix(0.08641975308641973,0,0,0.08641975308641973,84.0864197530864,0)" xlink:href="#aG"/><use transform="matrix(0.08641975308641973,0,0,0.08641975308641973,102.14814814814812,0)" xlink:href="#aH"/><use transform="matrix(0.08641975308641973,0,0,0.08641975308641973,118.99999999999997,0)" xlink:href="#az"/><use transform="matrix(0.08641975308641973,0,0,0.08641975308641973,136.28395061728392,0)" xlink:href="#aC"/><use transform="matrix(0.08641975308641973,0,0,0.08641975308641973,151.83950617283946,0)" xlink:href="#aA"/><use transform="matrix(0.08641975308641973,0,0,0.08641975308641973,170.93827160493822,0)" xlink:href="#aI"/><path fill="#1071e5" d="M-1.56 1.67h191.33v3.27H-1.56z"/></g><path fill="#1071e5" d="M105-80l-17-2L49 0H-3l56-100c-21-25-36-61-54-90h48c17 27 27 62 51 82 2 1 5 1 7 1v-83h45v83c34-10 38-57 58-83h48c-18 30-33 63-54 90L258 0h-52l-39-82-17 2V0h-45v-80" id="aJ"/><path fill="#1071e5" d="M110-194c64 0 96 36 96 99 0 64-35 99-97 99-61 0-95-36-95-99 0-62 34-99 96-99zm-1 164c35 0 45-28 45-65 0-40-10-65-43-65-34 0-45 26-45 65 0 36 10 65 43 65" id="aK"/><path fill="#1071e5" d="M207-55C206 19 99-3 25 0v-190c69 5 172-21 177 47 2 30-24 34-43 44 27 3 48 13 48 44zm-50-2c0-36-48-24-82-26v52c34-2 82 10 82-26zm-7-80c0-31-45-20-75-22v45c31-3 75 10 75-23" id="aL"/><g id="i"><use transform="matrix(0.08641975308641973,0,0,0.08641975308641973,0,0)" xlink:href="#aJ"/><use transform="matrix(0.08641975308641973,0,0,0.08641975308641973,21.604938271604933,0)" xlink:href="#aH"/><use transform="matrix(0.08641975308641973,0,0,0.08641975308641973,38.456790123456784,0)" xlink:href="#az"/><use transform="matrix(0.08641975308641973,0,0,0.08641975308641973,55.740740740740726,0)" xlink:href="#aF"/><use transform="matrix(0.08641975308641973,0,0,0.08641975308641973,70.5185185185185,0)" xlink:href="#aK"/><use transform="matrix(0.08641975308641973,0,0,0.08641975308641973,89.44444444444443,0)" xlink:href="#aL"/></g><path fill="#cc4e00" d="M217-43h33V72h-44V0H47v72H3V-43h28c29-54 38-131 48-205h138v205zm-50 0v-162h-46c-7 58-16 118-36 162h82" id="aM"/><path fill="#cc4e00" d="M185-48c-13 30-37 53-82 52C43 2 14-33 14-96s30-98 90-98c62 0 83 45 84 108H66c0 31 8 55 39 56 18 0 30-7 34-22zm-45-69c5-46-57-63-70-21-2 6-4 13-4 21h74" id="aN"/><path fill="#cc4e00" d="M10-190h156v33h-53V0H63v-157H10v-33" id="aO"/><path fill="#cc4e00" d="M25-190h50v81c22-2 24-18 33-36l22-45h49c-19 30-32 64-55 90L180 0h-50L89-81c-3 2-9 2-14 2V0H25v-190" id="aP"/><path fill="#cc4e00" d="M71-190L68-54l78-136h50V0h-45l3-136L78 0H25v-190h46" id="aQ"/><path fill="#cc4e00" d="M135-194c53 0 70 44 70 98 0 56-19 98-73 100-31 1-45-17-59-34 3 33 2 69 2 105H25l-1-265h48c2 10 0 23 3 31 11-24 29-35 60-35zM114-30c33 0 39-31 40-66 0-38-9-64-40-64-56 0-55 130 0 130" id="aR"/><path fill="#cc4e00" d="M110-194c64 0 96 36 96 99 0 64-35 99-97 99-61 0-95-36-95-99 0-62 34-99 96-99zm-1 164c35 0 45-28 45-65 0-40-10-65-43-65-34 0-45 26-45 65 0 36 10 65 43 65" id="aS"/><path fill="#cc4e00" d="M207-55C206 19 99-3 25 0v-190c69 5 172-21 177 47 2 30-24 34-43 44 27 3 48 13 48 44zm-50-2c0-36-48-24-82-26v52c34-2 82 10 82-26zm-7-80c0-31-45-20-75-22v45c31-3 75 10 75-23" id="aT"/><path fill="#cc4e00" d="M133-34C117-15 103 5 69 4 32 3 11-16 11-54c-1-60 55-63 116-61 1-26-3-47-28-47-18 1-26 9-28 27l-52-2c7-38 36-58 82-57s74 22 75 68l1 82c-1 14 12 18 25 15v27c-30 8-71 5-69-32zm-48 3c29 0 43-24 42-57-32 0-66-3-65 30 0 17 8 27 23 27" id="aU"/><path fill="#cc4e00" d="M75-190v75h68v-75h49V0h-49v-81H75V0H25v-190h50" id="aV"/><g id="j"><use transform="matrix(0.0864197530864197,0,0,0.0864197530864197,0,0)" xlink:href="#aM"/><use transform="matrix(0.0864197530864197,0,0,0.0864197530864197,22.469135802469125,0)" xlink:href="#aN"/><use transform="matrix(0.0864197530864197,0,0,0.0864197530864197,39.32098765432097,0)" xlink:href="#aO"/><use transform="matrix(0.0864197530864197,0,0,0.0864197530864197,54.53086419753083,0)" xlink:href="#aN"/><use transform="matrix(0.0864197530864197,0,0,0.0864197530864197,71.81481481481478,0)" xlink:href="#aP"/><use transform="matrix(0.0864197530864197,0,0,0.0864197530864197,87.37037037037032,0)" xlink:href="#aO"/><use transform="matrix(0.0864197530864197,0,0,0.0864197530864197,102.5802469135802,0)" xlink:href="#aQ"/><use transform="matrix(0.0864197530864197,0,0,0.0864197530864197,121.67901234567894,0)" xlink:href="#aR"/><use transform="matrix(0.0864197530864197,0,0,0.0864197530864197,140.60493827160488,0)" xlink:href="#aS"/><use transform="matrix(0.0864197530864197,0,0,0.0864197530864197,159.5308641975308,0)" xlink:href="#aT"/><use transform="matrix(0.0864197530864197,0,0,0.0864197530864197,178.19753086419746,0)" xlink:href="#aU"/><use transform="matrix(0.0864197530864197,0,0,0.0864197530864197,195.4814814814814,0)" xlink:href="#aV"/><use transform="matrix(0.0864197530864197,0,0,0.0864197530864197,214.23456790123444,0)" xlink:href="#aQ"/><use transform="matrix(0.0864197530864197,0,0,0.0864197530864197,233.33333333333326,0)" xlink:href="#aN"/></g><path fill="#333" d="M185-189c-5-48-123-54-124 2 14 75 158 14 163 119 3 78-121 87-175 55-17-10-28-26-33-46l33-7c5 56 141 63 141-1 0-78-155-14-162-118-5-82 145-84 179-34 5 7 8 16 11 25" id="aW"/><path fill="#333" d="M24-231v-30h32v30H24zM24 0v-190h32V0H24" id="aX"/><path fill="#333" d="M117-194c89-4 53 116 60 194h-32v-121c0-31-8-49-39-48C34-167 62-67 57 0H25l-1-190h30c1 10-1 24 2 32 11-22 29-35 61-36" id="aY"/><path fill="#333" d="M177-190C167-65 218 103 67 71c-23-6-38-20-44-43l32-5c15 47 100 32 89-28v-30C133-14 115 1 83 1 29 1 15-40 15-95c0-56 16-97 71-98 29-1 48 16 59 35 1-10 0-23 2-32h30zM94-22c36 0 50-32 50-73 0-42-14-75-50-75-39 0-46 34-46 75s6 73 46 73" id="aZ"/><path fill="#333" d="M24 0v-261h32V0H24" id="ba"/><path fill="#333" d="M100-194c63 0 86 42 84 106H49c0 40 14 67 53 68 26 1 43-12 49-29l28 8c-11 28-37 45-77 45C44 4 14-33 15-96c1-61 26-98 85-98zm52 81c6-60-76-77-97-28-3 7-6 17-6 28h103" id="bb"/><g id="k"><use transform="matrix(0.09259259259259256,0,0,0.09259259259259256,0,0)" xlink:href="#aW"/><use transform="matrix(0.09259259259259256,0,0,0.09259259259259256,22.222222222222214,0)" xlink:href="#aX"/><use transform="matrix(0.09259259259259256,0,0,0.09259259259259256,29.537037037037027,0)" xlink:href="#aY"/><use transform="matrix(0.09259259259259256,0,0,0.09259259259259256,48.055555555555536,0)" xlink:href="#aZ"/><use transform="matrix(0.09259259259259256,0,0,0.09259259259259256,66.57407407407405,0)" xlink:href="#ba"/><use transform="matrix(0.09259259259259256,0,0,0.09259259259259256,73.88888888888886,0)" xlink:href="#bb"/></g><path fill="#333" d="M106-169C34-169 62-67 57 0H25v-261h32l-1 103c12-21 28-36 61-36 89 0 53 116 60 194h-32v-121c2-32-8-49-39-48" id="bc"/><path fill="#333" d="M100-194c62-1 85 37 85 99 1 63-27 99-86 99S16-35 15-95c0-66 28-99 85-99zM99-20c44 1 53-31 53-75 0-43-8-75-51-75s-53 32-53 75 10 74 51 75" id="bd"/><path fill="#333" d="M59-47c-2 24 18 29 38 22v24C64 9 27 4 27-40v-127H5v-23h24l9-43h21v43h35v23H59v120" id="be"/><g id="l"><use transform="matrix(0.09259259259259256,0,0,0.09259259259259256,0,0)" xlink:href="#aW"/><use transform="matrix(0.09259259259259256,0,0,0.09259259259259256,22.222222222222214,0)" xlink:href="#bc"/><use transform="matrix(0.09259259259259256,0,0,0.09259259259259256,40.740740740740726,0)" xlink:href="#bd"/><use transform="matrix(0.09259259259259256,0,0,0.09259259259259256,59.25925925925924,0)" xlink:href="#be"/></g><path fill="#333" d="M30-248c118-7 216 8 213 122C240-48 200 0 122 0H30v-248zM63-27c89 8 146-16 146-99s-60-101-146-95v194" id="bf"/><path fill="#333" d="M96-169c-40 0-48 33-48 73s9 75 48 75c24 0 41-14 43-38l32 2c-6 37-31 61-74 61-59 0-76-41-82-99-10-93 101-131 147-64 4 7 5 14 7 22l-32 3c-4-21-16-35-41-35" id="bg"/><path fill="#333" d="M114-163C36-179 61-72 57 0H25l-1-190h30c1 12-1 29 2 39 6-27 23-49 58-41v29" id="bh"/><g id="m"><use transform="matrix(0.09259259259259256,0,0,0.09259259259259256,0,0)" xlink:href="#bf"/><use transform="matrix(0.09259259259259256,0,0,0.09259259259259256,23.981481481481474,0)" xlink:href="#bb"/><use transform="matrix(0.09259259259259256,0,0,0.09259259259259256,42.499999999999986,0)" xlink:href="#be"/><use transform="matrix(0.09259259259259256,0,0,0.09259259259259256,51.75925925925924,0)" xlink:href="#bb"/><use transform="matrix(0.09259259259259256,0,0,0.09259259259259256,70.27777777777774,0)" xlink:href="#bg"/><use transform="matrix(0.09259259259259256,0,0,0.09259259259259256,86.9444444444444,0)" xlink:href="#be"/><use transform="matrix(0.09259259259259256,0,0,0.09259259259259256,96.20370370370365,0)" xlink:href="#bd"/><use transform="matrix(0.09259259259259256,0,0,0.09259259259259256,114.72222222222219,0)" xlink:href="#bh"/></g><path fill="#333" d="M212-179c-10-28-35-45-73-45-59 0-87 40-87 99 0 60 29 101 89 101 43 0 62-24 78-52l27 14C228-24 195 4 139 4 59 4 22-46 18-125c-6-104 99-153 187-111 19 9 31 26 39 46" id="bi"/><use transform="matrix(0.08678500986193294,0,0,0.08678500986193294,0,0)" xlink:href="#bi" id="n"/><path fill="#333" d="M170-190V0h-32v-167H57V0H25v-190h145" id="bj"/><path fill="#333" d="M100-194c62-1 85 37 85 99 1 63-27 99-86 99S16-35 15-95c0-66 28-99 85-99zM99-20c44 1 53-31 53-75 0-43-8-75-51-75s-53 32-53 75 10 74 51 75" id="bk"/><path fill="#333" d="M138 0h-27L54-167c3 53 2 111 2 167H25v-190h49c16 56 39 106 51 166 11-61 34-110 50-166h48V0h-31l2-168" id="bl"/><path fill="#333" d="M25 0v-190h32v167h71v-167h31v167h71v-167h32v167h26v95h-29V0H25" id="bm"/><path fill="#333" d="M173-56C173 11 92 0 25 0v-190h32v80c58-2 117-2 116 54zm-34 0c0-39-44-31-82-32v66c39 0 82 6 82-34" id="bn"/><path fill="#333" d="M175-194c59 1 80 36 80 99 0 62-25 99-81 99-54 0-76-36-78-91H57V0H25v-190h32v80h39c4-56 30-84 79-84zm-1 174c42 1 48-34 48-75 0-42-6-75-46-75-41-1-47 34-47 75s6 74 45 75" id="bo"/><g id="o"><use transform="matrix(0.08678500986193294,0,0,0.08678500986193294,0,0)" xlink:href="#bj"/><use transform="matrix(0.08678500986193294,0,0,0.08678500986193294,16.83629191321499,0)" xlink:href="#bk"/><use transform="matrix(0.08678500986193294,0,0,0.08678500986193294,34.19329388560158,0)" xlink:href="#bl"/><use transform="matrix(0.08678500986193294,0,0,0.08678500986193294,55.629191321499,0)" xlink:href="#bk"/><use transform="matrix(0.08678500986193294,0,0,0.08678500986193294,72.98619329388559,0)" xlink:href="#bm"/><use transform="matrix(0.08678500986193294,0,0,0.08678500986193294,98.67455621301774,0)" xlink:href="#bn"/><use transform="matrix(0.08678500986193294,0,0,0.08678500986193294,114.90335305719918,0)" xlink:href="#bo"/></g><path fill="#333" d="M30 0v-248h30L58-37l132-211h39V0h-30l1-209L70 0H30" id="bp"/><path fill="#333" d="M197 0v-115H63V0H30v-248h33v105h134v-105h34V0h-34" id="bq"/><g id="p"><use transform="matrix(0.08678500986193294,0,0,0.08678500986193294,0,0)" xlink:href="#bp"/><use transform="matrix(0.08678500986193294,0,0,0.08678500986193294,22.390532544378697,0)" xlink:href="#bq"/><use transform="matrix(0.08678500986193294,0,0,0.08678500986193294,44.86785009861933,0)" xlink:href="#bi"/></g><path fill="#333" d="M115-194c55 1 70 41 70 98S169 2 115 4C84 4 66-9 55-30l1 105H24l-1-265h31l2 30c10-21 28-34 59-34zm-8 174c40 0 45-34 45-75s-6-73-45-74c-42 0-51 32-51 76 0 43 10 73 51 73" id="br"/><path fill="#333" d="M100-194c63 0 86 42 84 106H49c0 40 14 67 53 68 26 1 43-12 49-29l28 8c-11 28-37 45-77 45C44 4 14-33 15-96c1-61 26-98 85-98zm52 81c6-60-76-77-97-28-3 7-6 17-6 28h103" id="bs"/><path fill="#333" d="M121-190v23H57V0H25v-190h96" id="bt"/><path fill="#333" d="M96-169c-40 0-48 33-48 73s9 75 48 75c24 0 41-14 43-38l32 2c-6 37-31 61-74 61-59 0-76-41-82-99-10-93 101-131 147-64 4 7 5 14 7 22l-32 3c-4-21-16-35-41-35" id="bu"/><path fill="#333" d="M56-190L54-37l88-153h34V0h-30l2-153L59 0H25v-190h31" id="bv"/><g id="q"><use transform="matrix(0.08678500986193294,0,0,0.08678500986193294,0,0)" xlink:href="#br"/><use transform="matrix(0.08678500986193294,0,0,0.08678500986193294,17.357001972386588,0)" xlink:href="#bs"/><use transform="matrix(0.08678500986193294,0,0,0.08678500986193294,34.714003944773175,0)" xlink:href="#bt"/><use transform="matrix(0.08678500986193294,0,0,0.08678500986193294,46.08284023668639,0)" xlink:href="#br"/><use transform="matrix(0.08678500986193294,0,0,0.08678500986193294,63.43984220907298,0)" xlink:href="#bs"/><use transform="matrix(0.08678500986193294,0,0,0.08678500986193294,80.79684418145956,0)" xlink:href="#bu"/><use transform="matrix(0.08678500986193294,0,0,0.08678500986193294,96.41814595660749,0)" xlink:href="#bu"/><use transform="matrix(0.08678500986193294,0,0,0.08678500986193294,112.03944773175542,0)" xlink:href="#bv"/><use transform="matrix(0.08678500986193294,0,0,0.08678500986193294,129.48323471400394,0)" xlink:href="#bv"/></g><path fill="#333" d="M240 0l2-218c-23 76-54 145-80 218h-23L58-218 59 0H30v-248h44l77 211c21-75 51-140 76-211h43V0h-30" id="bw"/><path fill="#333" d="M85-194c31 0 48 13 60 33l-1-100h32l1 261h-30c-2-10 0-23-3-31C134-8 116 4 85 4 32 4 16-35 15-94c0-66 23-100 70-100zm9 24c-40 0-46 34-46 75 0 40 6 74 45 74 42 0 51-32 51-76 0-42-9-74-50-73" id="bx"/><path fill="#333" d="M141-36C126-15 110 5 73 4 37 3 15-17 15-53c-1-64 63-63 125-63 3-35-9-54-41-54-24 1-41 7-42 31l-33-3c5-37 33-52 76-52 45 0 72 20 72 64v82c-1 20 7 32 28 27v20c-31 9-61-2-59-35zM48-53c0 20 12 33 32 33 41-3 63-29 60-74-43 2-92-5-92 41" id="by"/><path fill="#333" d="M30-248c87 1 191-15 191 75 0 78-77 80-158 76V0H30v-248zm33 125c57 0 124 11 124-50 0-59-68-47-124-48v98" id="bz"/><path fill="#333" d="M115-194c55 1 70 41 70 98S169 2 115 4C84 4 66-9 55-30l1 105H24l-1-265h31l2 30c10-21 28-34 59-34zm-8 174c40 0 45-34 45-75s-6-73-45-74c-42 0-51 32-51 76 0 43 10 73 51 73" id="bA"/><g id="r"><use transform="matrix(0.08678500986193294,0,0,0.08678500986193294,0,0)" xlink:href="#bw"/><use transform="matrix(0.08678500986193294,0,0,0.08678500986193294,25.94871794871795,0)" xlink:href="#bb"/><use transform="matrix(0.08678500986193294,0,0,0.08678500986193294,43.30571992110454,0)" xlink:href="#bx"/><use transform="matrix(0.08678500986193294,0,0,0.08678500986193294,60.662721893491124,0)" xlink:href="#aX"/><use transform="matrix(0.08678500986193294,0,0,0.08678500986193294,67.51873767258382,0)" xlink:href="#by"/><use transform="matrix(0.08678500986193294,0,0,0.08678500986193294,84.87573964497041,0)" xlink:href="#bz"/><use transform="matrix(0.08678500986193294,0,0,0.08678500986193294,105.70414201183429,0)" xlink:href="#aX"/><use transform="matrix(0.08678500986193294,0,0,0.08678500986193294,112.56015779092701,0)" xlink:href="#bA"/><use transform="matrix(0.08678500986193294,0,0,0.08678500986193294,129.9171597633136,0)" xlink:href="#bb"/></g><path fill="#333" d="M197 0v-115H63V0H30v-248h33v105h134v-105h34V0h-34" id="bB"/><path fill="#333" d="M135-143c-3-34-86-38-87 0 15 53 115 12 119 90S17 21 10-45l28-5c4 36 97 45 98 0-10-56-113-15-118-90-4-57 82-63 122-42 12 7 21 19 24 35" id="bC"/><g id="s"><use transform="matrix(0.08678500986193294,0,0,0.08678500986193294,0,0)" xlink:href="#bB"/><use transform="matrix(0.08678500986193294,0,0,0.08678500986193294,22.47731755424063,0)" xlink:href="#by"/><use transform="matrix(0.08678500986193294,0,0,0.08678500986193294,39.83431952662722,0)" xlink:href="#aY"/><use transform="matrix(0.08678500986193294,0,0,0.08678500986193294,57.1913214990138,0)" xlink:href="#bx"/><use transform="matrix(0.08678500986193294,0,0,0.08678500986193294,74.5483234714004,0)" xlink:href="#bC"/></g><use transform="matrix(0.08641975308641973,0,0,0.08641975308641973,0,0)" xlink:href="#bi" id="t"/><g id="u"><use transform="matrix(0.08641975308641973,0,0,0.08641975308641973,0,0)" xlink:href="#bj"/><use transform="matrix(0.08641975308641973,0,0,0.08641975308641973,16.76543209876543,0)" xlink:href="#bk"/><use transform="matrix(0.08641975308641973,0,0,0.08641975308641973,34.04938271604938,0)" xlink:href="#bl"/><use transform="matrix(0.08641975308641973,0,0,0.08641975308641973,55.39506172839505,0)" xlink:href="#bk"/><use transform="matrix(0.08641975308641973,0,0,0.08641975308641973,72.679012345679,0)" xlink:href="#bm"/><use transform="matrix(0.08641975308641973,0,0,0.08641975308641973,98.25925925925924,0)" xlink:href="#bn"/><use transform="matrix(0.08641975308641973,0,0,0.08641975308641973,114.41975308641973,0)" xlink:href="#bo"/></g><g id="v"><use transform="matrix(0.08641975308641973,0,0,0.08641975308641973,0,0)" xlink:href="#bp"/><use transform="matrix(0.08641975308641973,0,0,0.08641975308641973,22.29629629629629,0)" xlink:href="#bq"/><use transform="matrix(0.08641975308641973,0,0,0.08641975308641973,44.679012345679006,0)" xlink:href="#bi"/></g><path fill="#333" d="M75-87c-4 1-14 3-19 3V0H24v-190h32v83c26-2 31-21 43-41l26-42h33l-61 86L159 0h-35" id="bD"/><path fill="#333" d="M153 0v-167H87C74-108 81-27 38 0 29 5 12 6 2 1v-22c51 4 39-64 49-112 5-25 4-25 8-57h126V0h-32" id="bE"/><path fill="#333" d="M141-36C126-15 110 5 73 4 37 3 15-17 15-53c-1-64 63-63 125-63 3-35-9-54-41-54-24 1-41 7-42 31l-33-3c5-37 33-52 76-52 45 0 72 20 72 64v82c-1 20 7 32 28 27v20c-31 9-61-2-59-35zM48-53c0 20 12 33 32 33 41-3 63-29 60-74-43 2-92-5-92 41" id="bF"/><path fill="#333" d="M217-194c52 0 64 44 64 98S268 2 217 4c-29 1-44-13-55-34l1 105h-30V-31C124-8 108 4 79 4 29 4 16-37 15-94c0-57 15-98 64-100 29 0 44 14 55 33l-1-100h30v101c10-23 24-34 54-34zM89-170c-37 1-41 36-41 75 0 37 3 74 40 74 39 0 45-35 45-76-1-39-6-73-44-73zM207-20c38 0 41-36 41-75 0-38-3-74-40-74-41 0-45 36-45 80 1 38 7 69 44 69" id="bG"/><path fill="#333" d="M57-190v167h83v-167h32v167h26v95h-29V0H25v-190h32" id="bH"/><g id="w"><use transform="matrix(0.08641975308641973,0,0,0.08641975308641973,0,0)" xlink:href="#bD"/><use transform="matrix(0.08641975308641973,0,0,0.08641975308641973,13.913580246913577,0)" xlink:href="#bE"/><use transform="matrix(0.08641975308641973,0,0,0.08641975308641973,32.06172839506172,0)" xlink:href="#bF"/><use transform="matrix(0.08641975308641973,0,0,0.08641975308641973,49.34567901234567,0)" xlink:href="#bu"/><use transform="matrix(0.08641975308641973,0,0,0.08641975308641973,64.90123456790123,0)" xlink:href="#bu"/><use transform="matrix(0.08641975308641973,0,0,0.08641975308641973,80.45679012345678,0)" xlink:href="#bv"/><use transform="matrix(0.08641975308641973,0,0,0.08641975308641973,97.82716049382717,0)" xlink:href="#bG"/><use transform="matrix(0.08641975308641973,0,0,0.08641975308641973,123.4074074074074,0)" xlink:href="#bv"/><use transform="matrix(0.08641975308641973,0,0,0.08641975308641973,140.77777777777777,0)" xlink:href="#bD"/><use transform="matrix(0.08641975308641973,0,0,0.08641975308641973,155.03703703703704,0)" xlink:href="#bF"/><use transform="matrix(0.08641975308641973,0,0,0.08641975308641973,172.320987654321,0)" xlink:href="#bH"/><use transform="matrix(0.08641975308641973,0,0,0.08641975308641973,190.12345679012344,0)" xlink:href="#bv"/><use transform="matrix(0.08641975308641973,0,0,0.08641975308641973,207.49382716049382,0)" xlink:href="#bv"/></g><g id="x"><use transform="matrix(0.08641975308641973,0,0,0.08641975308641973,0,0)" xlink:href="#bj"/><use transform="matrix(0.08641975308641973,0,0,0.08641975308641973,16.76543209876543,0)" xlink:href="#bk"/></g><path fill="#333" d="M6-190h153v23H98V0H67v-167H6v-23" id="bI"/><path fill="#333" d="M131-81C94-61 21-56 21-118v-72h32c4 39-16 99 29 99 19 0 33-5 49-8v-91h31V0h-31v-81" id="bJ"/><g id="y"><use transform="matrix(0.08641975308641973,0,0,0.08641975308641973,0,0)" xlink:href="#bI"/><use transform="matrix(0.08641975308641973,0,0,0.08641975308641973,13.827160493827158,0)" xlink:href="#bk"/><use transform="matrix(0.08641975308641973,0,0,0.08641975308641973,30.419753086419746,0)" xlink:href="#bJ"/><use transform="matrix(0.08641975308641973,0,0,0.08641975308641973,46.58024691358024,0)" xlink:href="#bD"/><use transform="matrix(0.08641975308641973,0,0,0.08641975308641973,60.839506172839506,0)" xlink:href="#bF"/><use transform="matrix(0.08641975308641973,0,0,0.08641975308641973,78.12345679012344,0)" xlink:href="#bl"/></g><path fill="#333" d="M182-130c37 4 62 22 62 59C244 23 116-4 24 0v-248c84 5 203-23 205 63 0 31-19 50-47 55zM76-148c40-3 101 13 101-30 0-44-60-28-101-31v61zm0 110c48-3 116 14 116-37 0-48-69-32-116-35v72" id="bK"/><path fill="#333" d="M144 0l-44-69L55 0H2l70-98-66-92h53l41 62 40-62h54l-67 91 71 99h-54" id="bL"/><path fill="#333" d="M110-194c64 0 96 36 96 99 0 64-35 99-97 99-61 0-95-36-95-99 0-62 34-99 96-99zm-1 164c35 0 45-28 45-65 0-40-10-65-43-65-34 0-45 26-45 65 0 36 10 65 43 65" id="bM"/><path fill="#333" d="M147-157h-42c-8 43-13 90-29 124h71v-124zM24-33c25-41 30-96 40-157h132v157h26V72h-43V0H46v72H2V-33h22" id="bN"/><path fill="#333" d="M75-190v75h68v-75h49V0h-49v-81H75V0H25v-190h50" id="bO"/><path fill="#333" d="M185-48c-13 30-37 53-82 52C43 2 14-33 14-96s30-98 90-98c62 0 83 45 84 108H66c0 31 8 55 39 56 18 0 30-7 34-22zm-45-69c5-46-57-63-70-21-2 6-4 13-4 21h74" id="bP"/><g id="z"><use transform="matrix(0.08641975308641973,0,0,0.08641975308641973,0,0)" xlink:href="#bK"/><use transform="matrix(0.08641975308641973,0,0,0.08641975308641973,21.950617283950614,0)" xlink:href="#bL"/><use transform="matrix(0.08641975308641973,0,0,0.08641975308641973,38.456790123456784,0)" xlink:href="#bM"/><use transform="matrix(0.08641975308641973,0,0,0.08641975308641973,56.950617283950606,0)" xlink:href="#bN"/><use transform="matrix(0.08641975308641973,0,0,0.08641975308641973,76.6543209876543,0)" xlink:href="#bO"/><use transform="matrix(0.08641975308641973,0,0,0.08641975308641973,95.40740740740739,0)" xlink:href="#bM"/><use transform="matrix(0.08641975308641973,0,0,0.08641975308641973,114.33333333333331,0)" xlink:href="#bP"/></g><path fill="#333" d="M71-190L68-54l78-136h50V0h-45l3-136L78 0H25v-190h46" id="bQ"/><path fill="#333" d="M167-53c1 59-90 70-131 42-13-9-22-23-27-40l43-7c1 32 65 40 64 3-1-25-25-28-52-28v-31c25 0 50-2 50-26 0-32-58-28-59 3l-41-4c4-67 144-74 147-3 1 30-22 38-44 45 28 3 49 16 50 46" id="bR"/><path fill="#333" d="M111-30c34 0 45-22 45-58s-9-59-42-59c-34 0-45 23-45 59 0 35 10 58 42 58zm-65-95c11-34 33-56 77-56 59 0 85 31 85 92 1 63-35 89-97 93C-12 13-8-201 74-238c33-15 81-20 124-26v41c-70 13-161 1-152 98" id="bS"/><path fill="#333" d="M135-194c53 0 70 44 70 98 0 56-19 98-73 100-31 1-45-17-59-34 3 33 2 69 2 105H25l-1-265h48c2 10 0 23 3 31 11-24 29-35 60-35zM114-30c33 0 39-31 40-66 0-38-9-64-40-64-56 0-55 130 0 130" id="bT"/><path fill="#333" d="M133-34C117-15 103 5 69 4 32 3 11-16 11-54c-1-60 55-63 116-61 1-26-3-47-28-47-18 1-26 9-28 27l-52-2c7-38 36-58 82-57s74 22 75 68l1 82c-1 14 12 18 25 15v27c-30 8-71 5-69-32zm-48 3c29 0 43-24 42-57-32 0-66-3-65 30 0 17 8 27 23 27" id="bU"/><path fill="#333" d="M105-80l-17-2L49 0H-3l56-100c-21-25-36-61-54-90h48c17 27 27 62 51 82 2 1 5 1 7 1v-83h45v83c34-10 38-57 58-83h48c-18 30-33 63-54 90L258 0h-52l-39-82-17 2V0h-45v-80" id="bV"/><g id="A"><use transform="matrix(0.08641975308641973,0,0,0.08641975308641973,0,0)" xlink:href="#bQ"/><use transform="matrix(0.08641975308641973,0,0,0.08641975308641973,19.098765432098762,0)" xlink:href="#bR"/><use transform="matrix(0.08641975308641973,0,0,0.08641975308641973,33.703703703703695,0)" xlink:href="#bM"/><use transform="matrix(0.08641975308641973,0,0,0.08641975308641973,52.62962962962962,0)" xlink:href="#bM"/><use transform="matrix(0.08641975308641973,0,0,0.08641975308641973,71.55555555555554,0)" xlink:href="#bS"/><use transform="matrix(0.08641975308641973,0,0,0.08641975308641973,90.74074074074072,0)" xlink:href="#bT"/><use transform="matrix(0.08641975308641973,0,0,0.08641975308641973,109.66666666666664,0)" xlink:href="#bU"/><use transform="matrix(0.08641975308641973,0,0,0.08641975308641973,126.95061728395059,0)" xlink:href="#bV"/><use transform="matrix(0.08641975308641973,0,0,0.08641975308641973,148.55555555555551,0)" xlink:href="#bP"/><use transform="matrix(0.08641975308641973,0,0,0.08641975308641973,165.83950617283946,0)" xlink:href="#bO"/><use transform="matrix(0.08641975308641973,0,0,0.08641975308641973,184.59259259259255,0)" xlink:href="#bQ"/><use transform="matrix(0.08641975308641973,0,0,0.08641975308641973,203.6913580246913,0)" xlink:href="#bP"/></g><use transform="matrix(0.08641975308641973,0,0,0.08641975308641973,0,0)" xlink:href="#bi" id="B"/><g id="C"><use transform="matrix(0.08641975308641973,0,0,0.08641975308641973,0,0)" xlink:href="#bj"/><use transform="matrix(0.08641975308641973,0,0,0.08641975308641973,16.76543209876543,0)" xlink:href="#bk"/><use transform="matrix(0.08641975308641973,0,0,0.08641975308641973,34.04938271604938,0)" xlink:href="#bl"/><use transform="matrix(0.08641975308641973,0,0,0.08641975308641973,55.39506172839505,0)" xlink:href="#bk"/><use transform="matrix(0.08641975308641973,0,0,0.08641975308641973,72.679012345679,0)" xlink:href="#bm"/><use transform="matrix(0.08641975308641973,0,0,0.08641975308641973,98.25925925925924,0)" xlink:href="#bn"/><use transform="matrix(0.08641975308641973,0,0,0.08641975308641973,114.41975308641973,0)" xlink:href="#bo"/></g><g id="D"><use transform="matrix(0.08641975308641973,0,0,0.08641975308641973,0,0)" xlink:href="#bp"/><use transform="matrix(0.08641975308641973,0,0,0.08641975308641973,22.29629629629629,0)" xlink:href="#bq"/><use transform="matrix(0.08641975308641973,0,0,0.08641975308641973,44.679012345679006,0)" xlink:href="#bi"/></g><g id="E"><use transform="matrix(0.08641975308641973,0,0,0.08641975308641973,0,0)" xlink:href="#bD"/><use transform="matrix(0.08641975308641973,0,0,0.08641975308641973,13.913580246913577,0)" xlink:href="#bE"/><use transform="matrix(0.08641975308641973,0,0,0.08641975308641973,32.06172839506172,0)" xlink:href="#bF"/><use transform="matrix(0.08641975308641973,0,0,0.08641975308641973,49.34567901234567,0)" xlink:href="#bu"/><use transform="matrix(0.08641975308641973,0,0,0.08641975308641973,64.90123456790123,0)" xlink:href="#bu"/><use transform="matrix(0.08641975308641973,0,0,0.08641975308641973,80.45679012345678,0)" xlink:href="#bv"/><use transform="matrix(0.08641975308641973,0,0,0.08641975308641973,97.82716049382717,0)" xlink:href="#bG"/><use transform="matrix(0.08641975308641973,0,0,0.08641975308641973,123.4074074074074,0)" xlink:href="#bv"/><use transform="matrix(0.08641975308641973,0,0,0.08641975308641973,140.77777777777777,0)" xlink:href="#bD"/><use transform="matrix(0.08641975308641973,0,0,0.08641975308641973,155.03703703703704,0)" xlink:href="#bF"/><use transform="matrix(0.08641975308641973,0,0,0.08641975308641973,172.320987654321,0)" xlink:href="#bH"/><use transform="matrix(0.08641975308641973,0,0,0.08641975308641973,190.12345679012344,0)" xlink:href="#bv"/><use transform="matrix(0.08641975308641973,0,0,0.08641975308641973,207.49382716049382,0)" xlink:href="#bv"/></g><g id="F"><use transform="matrix(0.08641975308641973,0,0,0.08641975308641973,0,0)" xlink:href="#bj"/><use transform="matrix(0.08641975308641973,0,0,0.08641975308641973,16.76543209876543,0)" xlink:href="#bk"/></g><path fill="#333" d="M176-55C176 11 93 0 25 0v-190c61 3 142-15 144 47 1 29-21 35-39 44 27 3 46 16 46 44zm-34 0c0-41-47-30-85-32v64c38-1 85 8 85-32zm-6-83c0-36-44-26-79-28v56c34-2 79 8 79-28" id="bW"/><path fill="#333" d="M179-190L93 31C79 59 56 82 12 73V49c39 6 53-20 64-50L1-190h34L92-34l54-156h33" id="bX"/><g id="G"><use transform="matrix(0.08641975308641973,0,0,0.08641975308641973,0,0)" xlink:href="#bl"/><use transform="matrix(0.08641975308641973,0,0,0.08641975308641973,21.345679012345673,0)" xlink:href="#bF"/><use transform="matrix(0.08641975308641973,0,0,0.08641975308641973,38.62962962962962,0)" xlink:href="#bu"/><use transform="matrix(0.08641975308641973,0,0,0.08641975308641973,54.185185185185176,0)" xlink:href="#bu"/><use transform="matrix(0.08641975308641973,0,0,0.08641975308641973,69.74074074074072,0)" xlink:href="#bv"/><use transform="matrix(0.08641975308641973,0,0,0.08641975308641973,87.11111111111109,0)" xlink:href="#bW"/><use transform="matrix(0.08641975308641973,0,0,0.08641975308641973,102.92592592592591,0)" xlink:href="#bX"/></g><g id="H"><use transform="matrix(0.08641975308641973,0,0,0.08641975308641973,0,0)" xlink:href="#bI"/><use transform="matrix(0.08641975308641973,0,0,0.08641975308641973,13.827160493827158,0)" xlink:href="#bk"/><use transform="matrix(0.08641975308641973,0,0,0.08641975308641973,30.419753086419746,0)" xlink:href="#bJ"/><use transform="matrix(0.08641975308641973,0,0,0.08641975308641973,46.58024691358024,0)" xlink:href="#bs"/><use transform="matrix(0.08641975308641973,0,0,0.08641975308641973,63.864197530864196,0)" xlink:href="#bD"/></g><path fill="#333" d="M63-143c77-2 155-4 155 70C218 13 117 1 30 0v-248h162v28H63v77zm0 116c54-1 121 11 121-45 0-53-67-44-121-44v89" id="bY"/><g id="I"><use transform="matrix(0.08641975308641973,0,0,0.08641975308641973,0,0)" xlink:href="#bY"/><use transform="matrix(0.08641975308641973,0,0,0.08641975308641973,19.7037037037037,0)" xlink:href="#bX"/><use transform="matrix(0.08641975308641973,0,0,0.08641975308641973,34.91358024691357,0)" xlink:href="#bG"/><use transform="matrix(0.08641975308641973,0,0,0.08641975308641973,60.4938271604938,0)" xlink:href="#bs"/><use transform="matrix(0.08641975308641973,0,0,0.08641975308641973,77.77777777777776,0)" xlink:href="#br"/></g><g id="J"><use transform="matrix(0.08641975308641973,0,0,0.08641975308641973,0,0)" xlink:href="#bI"/><use transform="matrix(0.08641975308641973,0,0,0.08641975308641973,13.827160493827158,0)" xlink:href="#bk"/><use transform="matrix(0.08641975308641973,0,0,0.08641975308641973,30.419753086419746,0)" xlink:href="#bJ"/><use transform="matrix(0.08641975308641973,0,0,0.08641975308641973,46.58024691358024,0)" xlink:href="#bs"/><use transform="matrix(0.08641975308641973,0,0,0.08641975308641973,63.864197530864196,0)" xlink:href="#bD"/></g><path fill="#333" d="M67-125c0 53 21 87 73 88 37 1 54-22 65-47l45 17C233-25 199 4 140 4 58 4 20-42 15-125 8-235 124-281 211-232c18 10 29 29 36 50l-46 12c-8-25-30-41-62-41-52 0-71 34-72 86" id="bZ"/><path fill="#333" d="M140-190v33H75V0H25v-190h115" id="ca"/><path fill="#333" d="M154 0v-157H99C89-107 89-44 65-9 54 6 26 5 4 1v-33c46 5 36-55 46-98 6-25 3-25 8-60h146V0h-50" id="cb"/><path fill="#333" d="M76-54c-1 42 2 86-19 110H24C36 42 46 24 48 0H25v-54h51" id="cc"/><g id="K"><use transform="matrix(0.08641975308641973,0,0,0.08641975308641973,0,0)" xlink:href="#bZ"/><use transform="matrix(0.08641975308641973,0,0,0.08641975308641973,22.38271604938271,0)" xlink:href="#bQ"/><use transform="matrix(0.08641975308641973,0,0,0.08641975308641973,41.481481481481474,0)" xlink:href="#ca"/><use transform="matrix(0.08641975308641973,0,0,0.08641975308641973,54.35802469135801,0)" xlink:href="#bO"/><use transform="matrix(0.08641975308641973,0,0,0.08641975308641973,73.11111111111109,0)" xlink:href="#bU"/><use transform="matrix(0.08641975308641973,0,0,0.08641975308641973,90.39506172839505,0)" xlink:href="#cb"/><use transform="matrix(0.08641975308641973,0,0,0.08641975308641973,110.09876543209872,0)" xlink:href="#cc"/></g><path fill="#333" d="M25-190h50v81c22-2 24-18 33-36l22-45h49c-19 30-32 64-55 90L180 0h-50L89-81c-3 2-9 2-14 2V0H25v-190" id="cd"/><path fill="#333" d="M123 10C108 53 80 86 19 72V37c35 8 53-11 59-39L3-190h52l48 148c12-52 28-100 44-148h51" id="ce"/><path fill="#333" d="M201-194c63 0 92 36 92 99 1 63-33 99-93 99-55 0-85-33-91-85H75V0H25v-190h50v75h35c7-49 36-79 91-79zm-1 164c32 0 42-26 42-65s-9-65-40-65c-32 0-42 27-42 65 1 35 8 65 40 65" id="cf"/><path fill="#333" d="M25 0v-190h46v157h56v-157h46v157h56v-157h46v157h25V72h-43V0H25" id="cg"/><path fill="#333" d="M184-268c7 76-131 80-142 15-1-5-1-10-1-15h39c1 22 10 35 32 35s31-13 32-35h40zM71-190L68-54l78-136h50V0h-45l3-136L78 0H25v-190h46" id="ch"/><g id="L"><use transform="matrix(0.08641975308641973,0,0,0.08641975308641973,0,0)" xlink:href="#cd"/><use transform="matrix(0.08641975308641973,0,0,0.08641975308641973,15.123456790123454,0)" xlink:href="#bM"/><use transform="matrix(0.08641975308641973,0,0,0.08641975308641973,33.61728395061728,0)" xlink:href="#bN"/><use transform="matrix(0.08641975308641973,0,0,0.08641975308641973,53.32098765432097,0)" xlink:href="#bQ"/><use transform="matrix(0.08641975308641973,0,0,0.08641975308641973,72.41975308641973,0)" xlink:href="#bT"/><use transform="matrix(0.08641975308641973,0,0,0.08641975308641973,90.91358024691355,0)" xlink:href="#ce"/><use transform="matrix(0.08641975308641973,0,0,0.08641975308641973,108.1975308641975,0)" xlink:href="#cf"/><use transform="matrix(0.08641975308641973,0,0,0.08641975308641973,134.72839506172835,0)" xlink:href="#cg"/><use transform="matrix(0.08641975308641973,0,0,0.08641975308641973,160.91358024691354,0)" xlink:href="#bQ"/><use transform="matrix(0.08641975308641973,0,0,0.08641975308641973,180.0123456790123,0)" xlink:href="#ch"/></g><path fill="#333" d="M153 0h-38L66-156 68 0H25v-190h66c14 50 33 95 43 149 9-54 29-100 43-149h64V0h-43l3-156" id="ci"/><path fill="#333" d="M135-73C95-53 15-45 15-113v-77h49c4 41-18 104 39 95l32-8v-87h49V0h-49v-73" id="cj"/><path fill="#333" d="M190-63c-7 42-38 67-86 67-59 0-84-38-90-98-12-110 154-137 174-36l-49 2c-2-19-15-32-35-32-30 0-35 28-38 64-6 74 65 87 74 30" id="ck"/><g id="M"><use transform="matrix(0.08641975308641973,0,0,0.08641975308641973,0,0)" xlink:href="#bN"/><use transform="matrix(0.08641975308641973,0,0,0.08641975308641973,19.7037037037037,0)" xlink:href="#bQ"/><use transform="matrix(0.08641975308641973,0,0,0.08641975308641973,38.80246913580246,0)" xlink:href="#bO"/><use transform="matrix(0.08641975308641973,0,0,0.08641975308641973,57.55555555555554,0)" xlink:href="#bU"/><use transform="matrix(0.08641975308641973,0,0,0.08641975308641973,74.83950617283949,0)" xlink:href="#ci"/><use transform="matrix(0.08641975308641973,0,0,0.08641975308641973,97.82716049382714,0)" xlink:href="#bQ"/><use transform="matrix(0.08641975308641973,0,0,0.08641975308641973,116.9259259259259,0)" xlink:href="#cj"/><use transform="matrix(0.08641975308641973,0,0,0.08641975308641973,134.98765432098762,0)" xlink:href="#bP"/><use transform="matrix(0.08641975308641973,0,0,0.08641975308641973,151.83950617283946,0)" xlink:href="#ck"/><use transform="matrix(0.08641975308641973,0,0,0.08641975308641973,169.1234567901234,0)" xlink:href="#cd"/><use transform="matrix(0.08641975308641973,0,0,0.08641975308641973,184.67901234567898,0)" xlink:href="#bQ"/><use transform="matrix(0.08641975308641973,0,0,0.08641975308641973,203.77777777777774,0)" xlink:href="#ch"/></g><path fill="#333" d="M10-190h156v33h-53V0H63v-157H10v-33" id="cl"/><g id="N"><use transform="matrix(0.08641975308641973,0,0,0.08641975308641973,0,0)" xlink:href="#bV"/><use transform="matrix(0.08641975308641973,0,0,0.08641975308641973,21.604938271604933,0)" xlink:href="#bP"/><use transform="matrix(0.08641975308641973,0,0,0.08641975308641973,38.456790123456784,0)" xlink:href="#ck"/><use transform="matrix(0.08641975308641973,0,0,0.08641975308641973,55.740740740740726,0)" xlink:href="#cl"/></g><path fill="#333" d="M178-70c44 3 65-19 65-58 0-40-22-60-65-57v115zm117-59c0 67-45 98-117 96V2h-49v-35C57-30 12-64 12-129c0-67 45-95 117-93v-27h49v27c72-2 117 26 117 93zm-166-56c-42-2-64 18-64 57 0 40 21 61 64 58v-115" id="cm"/><path fill="#333" d="M206-58C204 19 101-3 25 0v-190h50v76c63-1 132-4 131 56zm-50 0c0-33-48-23-81-25v52c34-2 81 8 81-27" id="cn"/><g id="O"><use transform="matrix(0.08641975308641973,0,0,0.08641975308641973,0,0)" xlink:href="#cm"/><use transform="matrix(0.08641975308641973,0,0,0.08641975308641973,26.530864197530857,0)" xlink:href="#bQ"/><use transform="matrix(0.08641975308641973,0,0,0.08641975308641973,45.62962962962962,0)" xlink:href="#cb"/><use transform="matrix(0.08641975308641973,0,0,0.08641975308641973,65.33333333333331,0)" xlink:href="#cn"/><use transform="matrix(0.08641975308641973,0,0,0.08641975308641973,81.66666666666664,0)" xlink:href="#cl"/><use transform="matrix(0.08641975308641973,0,0,0.08641975308641973,96.87654320987652,0)" xlink:href="#bT"/></g><g id="P"><use transform="matrix(0.08641975308641973,0,0,0.08641975308641973,0,0)" xlink:href="#ck"/><use transform="matrix(0.08641975308641973,0,0,0.08641975308641973,17.283950617283946,0)" xlink:href="#cl"/><use transform="matrix(0.08641975308641973,0,0,0.08641975308641973,32.49382716049382,0)" xlink:href="#bU"/><use transform="matrix(0.08641975308641973,0,0,0.08641975308641973,49.777777777777764,0)" xlink:href="#cl"/><use transform="matrix(0.08641975308641973,0,0,0.08641975308641973,64.98765432098764,0)" xlink:href="#bQ"/><use transform="matrix(0.08641975308641973,0,0,0.08641975308641973,84.0864197530864,0)" xlink:href="#cj"/><use transform="matrix(0.08641975308641973,0,0,0.08641975308641973,102.14814814814812,0)" xlink:href="#bP"/><use transform="matrix(0.08641975308641973,0,0,0.08641975308641973,118.99999999999997,0)" xlink:href="#ck"/><use transform="matrix(0.08641975308641973,0,0,0.08641975308641973,136.28395061728392,0)" xlink:href="#cd"/><use transform="matrix(0.08641975308641973,0,0,0.08641975308641973,151.83950617283946,0)" xlink:href="#bQ"/><use transform="matrix(0.08641975308641973,0,0,0.08641975308641973,170.93827160493822,0)" xlink:href="#ch"/></g></defs></g></svg>